<svg id="Layer_1" data-name="Layer 1" xmlns="http://www.w3.org/2000/svg" viewBox="0 0 106 93"><defs><style>.cls-1{fill:#fefefe;}.cls-2{fill:#fe4e1e;}.cls-3{fill:#4c8a32;}</style></defs><title>LogoJarritos</title><path class="cls-1" d="M104.64,73.57c0,.19,0,.38,0,.57s0,.39,0,.58,0,.39,0,.58,0,.38,0,.57,0,.39-.06.57-.08.38-.11.57,0,.39-.08.57-.12.37-.16.56-.11.37-.16.55-.08.38-.14.56-.14.36-.21.54-.16.35-.24.52-.13.37-.22.54-.22.32-.32.48-.17.34-.28.5l-.3.49-.34.47-.34.45-.33.47c-.12.15-.27.28-.39.43l-.36.44c-.13.14-.24.3-.37.44s-.28.26-.42.39-.27.27-.41.4l-.42.39-.45.35c-.15.12-.27.28-.43.39s-.32.21-.48.31l-.47.32-.5.29-.5.28c-.17.09-.35.15-.53.24s-.35.14-.52.22-.33.2-.51.27-.36.13-.55.19l-.53.2c-.18.06-.38.07-.57.12s-.34.16-.53.21-.38.06-.57.11-.36.13-.54.18l-.57.11-.55.13c-.19,0-.39,0-.58.07s-.37,0-.57.08-.37.09-.56.11-.37,0-.57.07-.37.08-.56.11l-.57,0c-.19,0-.38,0-.58.06l-.56.08-.57,0c-.19,0-.39,0-.58,0s-.37,0-.57.06l-.57,0-.57.06-.58,0c-.19,0-.38.06-.57.07s-.38,0-.57,0-.38.07-.57.08-.38,0-.57,0h-.58c-.19,0-.38,0-.57,0l-.57,0c-.19,0-.39,0-.58,0s-.38,0-.57,0h-.57c-.2,0-.39,0-.58,0l-.57,0h-.58c-.19,0-.38,0-.57,0h-.57c-.19,0-.38,0-.58,0h-.57c-.19,0-.38,0-.57,0s-.38,0-.58,0-.38,0-.57,0-.38,0-.57,0l-.58,0c-.19,0-.38,0-.57,0l-.57,0h-.58l-.57,0-.57,0h-.58c-.19,0-.38,0-.57,0h-.58c-.19,0-.38.06-.57.06s-.38,0-.57,0h-.58c-.19,0-.38,0-.57,0s-.38,0-.57,0-.38,0-.58,0-.38,0-.57,0-.38.06-.57.06-.38,0-.57,0-.39,0-.58,0l-.57,0c-.19,0-.38,0-.57,0H55.75c-.19,0-.38,0-.57,0s-.38,0-.57,0H54l-.57,0h-.37c-.19,0-.38,0-.57,0H49.07c-.19,0-.38,0-.57,0l-.57,0h-.58c-.19,0-.38.05-.57.05s-.39,0-.58,0-.38,0-.57,0-.38,0-.57,0-.39-.06-.58-.06h-.57c-.2,0-.38,0-.58,0s-.38,0-.57,0-.38,0-.58,0H41l-.57,0-.57,0H38.74c-.19,0-.39,0-.57,0s-.38,0-.58,0-.38,0-.57,0h-.57c-.2,0-.39,0-.58,0l-.57,0-.58,0-.57,0h-.57l-.58,0c-.19,0-.38,0-.57,0s-.39,0-.58,0-.38,0-.57,0-.38,0-.57,0-.39-.06-.58-.07-.38,0-.57,0l-.58,0c-.19,0-.38,0-.57,0l-.57-.05c-.19,0-.39,0-.58,0s-.38-.06-.57-.07-.38,0-.57,0-.38,0-.58-.06L25,91.22c-.19,0-.38,0-.57,0l-.57,0-.58,0-.57-.05c-.19,0-.38-.08-.57-.1l-.57,0c-.19,0-.38,0-.57,0l-.58,0c-.19,0-.37-.08-.56-.1s-.39,0-.57-.06l-.57-.11-.57-.09c-.19,0-.38,0-.57-.06s-.37-.09-.56-.13-.38,0-.57-.08-.37-.12-.55-.16L15.3,90l-.55-.16-.56-.15-.54-.16c-.19-.06-.38-.09-.56-.15s-.35-.17-.52-.24L12,89c-.18-.08-.37-.13-.54-.2L11,88.5c-.17-.08-.35-.16-.51-.25s-.32-.22-.49-.32-.34-.17-.5-.27-.34-.19-.49-.3-.28-.27-.43-.38-.32-.21-.47-.33-.32-.23-.46-.35l-.41-.4c-.14-.13-.29-.25-.43-.39s-.24-.29-.37-.43-.24-.3-.37-.45l-.38-.42c-.12-.15-.25-.29-.37-.45s-.25-.28-.37-.43-.19-.33-.31-.49-.25-.28-.37-.44-.18-.33-.29-.5-.24-.3-.34-.46-.19-.33-.29-.5-.22-.31-.31-.48-.18-.34-.27-.51-.14-.36-.22-.54-.16-.34-.23-.52-.15-.36-.21-.54S2,78,1.94,77.79s-.08-.38-.13-.57-.1-.36-.14-.56,0-.37-.08-.57l-.09-.57c0-.19,0-.38-.07-.57s-.05-.38-.06-.57,0-.39,0-.58,0-.38,0-.57,0-.39,0-.58v-.58c0-.19-.05-.38,0-.58l0-.57c0-.19.08-.38.09-.57s0-.39,0-.58,0-.39,0-.58.08-.38.11-.57,0-.39,0-.58,0-.38.08-.57.11-.37.14-.56.07-.38.1-.57,0-.39.05-.58.08-.37.12-.56.11-.37.15-.56,0-.39.07-.57.14-.37.18-.55,0-.39.07-.58.13-.37.17-.55l.15-.56c0-.19.09-.37.14-.56s.08-.38.13-.56.13-.36.19-.55.09-.37.14-.56.1-.37.16-.55l.15-.56c.06-.18.14-.36.2-.54s.1-.37.16-.56.11-.36.17-.55.1-.37.16-.55.17-.35.23-.53.11-.36.18-.54.11-.37.18-.55.16-.35.22-.53.08-.38.15-.56.14-.36.2-.54.17-.34.24-.52.12-.37.18-.55l.2-.54.21-.53c.08-.18.19-.34.26-.52s.11-.37.18-.55.17-.34.25-.52.16-.35.23-.53.14-.35.22-.53.17-.34.25-.52.13-.36.21-.53l.23-.53c.08-.17.13-.36.21-.53s.21-.33.28-.51L9,45.11c.09-.17.12-.37.2-.54s.19-.34.27-.51.16-.35.24-.52.19-.34.27-.51.19-.34.27-.51.13-.37.22-.54.22-.31.31-.48l.26-.52.27-.5c.09-.17.13-.37.23-.53s.2-.33.29-.5.18-.34.28-.5.2-.33.3-.5l.28-.5c.09-.17.13-.36.23-.52s.21-.33.31-.49.21-.32.31-.49.17-.34.27-.5.22-.32.32-.48a5.72,5.72,0,0,1,.32-.48c.1-.17.18-.34.29-.5l.32-.47.3-.48c.11-.16.22-.3.33-.47s.19-.33.29-.49.22-.31.32-.47.2-.32.31-.48.22-.3.33-.46.18-.33.29-.49.22-.31.33-.47.24-.29.35-.45.2-.32.31-.48.18-.33.29-.48.25-.29.36-.45.2-.32.31-.48l.33-.47c.1-.15.24-.28.35-.44s.21-.32.32-.47.2-.33.31-.48.24-.29.35-.45.2-.32.32-.47.23-.3.34-.46.27-.27.38-.42.2-.33.31-.48.25-.29.36-.45.21-.32.33-.46.22-.31.34-.46.25-.28.37-.43.25-.28.37-.43.21-.32.33-.47.26-.28.38-.43.21-.32.33-.46.25-.28.38-.43.25-.28.37-.43.21-.32.33-.46l.39-.43c.12-.14.26-.27.39-.41l.36-.44c.13-.14.24-.29.37-.43l.38-.43c.12-.14.27-.26.4-.4l.39-.42c.13-.14.24-.29.37-.43s.25-.29.37-.43l.4-.41.38-.42c.14-.13.29-.25.42-.39s.28-.25.42-.39.25-.29.38-.42.3-.24.43-.37.25-.29.39-.42.28-.26.42-.39.26-.28.39-.41.3-.24.44-.37l.41-.39c.14-.12.31-.22.45-.35l.43-.38c.14-.12.27-.27.41-.39s.3-.23.44-.36l.45-.35.45-.36c.14-.12.31-.21.46-.32s.28-.27.43-.38L38,7.38l.46-.33.46-.34.48-.3.48-.32c.16-.1.3-.23.46-.33s.34-.17.5-.28.31-.23.47-.32l.49-.29c.17-.1.34-.17.51-.26s.34-.17.5-.26.32-.21.49-.3l.52-.24.51-.24.52-.24.54-.2c.17-.08.34-.17.51-.24l.53-.2c.18-.07.37-.1.55-.16s.35-.16.53-.22L48,2.18c.19-.05.36-.14.54-.18l.56-.14.55-.12.56-.11c.19,0,.38,0,.57-.08l.56-.08c.19,0,.38,0,.57-.06l.57,0,.56,0c.19,0,.38-.05.57-.05h.05c.19,0,.38,0,.57,0s.37.08.57.09.38,0,.57,0l.56.06.56.09c.19,0,.37.09.56.13s.38.05.56.09l.56.13.54.16.54.19.54.2.53.2.52.22.52.24c.17.08.35.15.52.24s.35.13.53.22l.5.25c.17.09.32.22.49.31l.49.28c.17.1.35.16.51.26l.49.29.48.32c.16.1.29.24.45.35s.34.17.49.28l.47.33.46.34c.15.11.28.25.43.37s.32.21.47.32l.44.37c.15.11.29.25.43.37s.28.26.43.38.31.22.45.35.27.27.41.4.32.21.46.33.25.29.39.42l.42.39.41.4c.13.13.29.24.43.37s.29.24.43.38.24.29.38.42.24.3.37.43.3.24.43.38.24.3.37.44.29.25.42.38l.38.43c.13.14.27.27.39.41s.23.31.36.45.27.26.4.41.22.3.35.45l.36.43c.13.15.29.26.41.4l.35.46c.12.14.26.27.38.42l.36.45c.12.14.21.31.33.46s.27.27.38.42l.36.44c.12.15.2.33.32.48s.23.3.35.45.25.28.37.43.2.33.31.48l.35.46c.11.15.23.29.35.44s.25.29.36.44.19.33.3.48.22.32.34.47.26.27.38.43.18.34.29.49l.33.46c.11.16.23.31.33.47l.33.46c.1.16.22.32.32.47s.2.33.31.49.25.28.35.44.23.31.33.47.17.34.28.5.24.3.34.45.19.34.29.49l.32.47.31.48.32.47c.11.16.19.34.29.49s.22.31.33.47.22.31.32.47.18.35.28.5.22.31.32.47l.31.48c.1.17.21.32.31.48s.18.34.28.49.13.2.26.4.1.21.22.41.24.3.34.46l.29.51c.1.16.18.33.28.5s.19.34.28.5l.3.5c.1.17.22.31.32.48s.17.34.27.51.17.34.27.52.22.31.32.48.15.35.24.53.2.32.29.49.17.35.26.52l.29.5c.09.17.15.35.25.52s.19.33.28.5.17.35.26.52.16.35.25.52.18.34.26.51l.26.52c.09.17.15.35.24.53s.2.33.28.5.14.36.22.54.2.33.28.5.18.34.26.52.13.36.21.54.15.35.23.53.19.33.27.51l.24.52c.08.18.14.36.22.54l.21.54c.08.17.19.34.27.51s.13.36.21.54.18.34.26.52.13.36.21.54.11.36.18.54.16.35.23.53.16.35.23.53l.21.54.2.54c.07.19.12.37.19.55s.17.34.24.53.07.38.14.56.15.35.21.54.16.35.22.53.11.37.17.55l.18.55.19.54.18.55c.06.19.09.38.15.56s.14.36.19.54.1.38.15.56.11.37.16.55.1.38.15.56.12.37.17.55.11.37.16.56.09.37.13.56,0,.38.09.57.11.37.15.56,0,.38.1.57.13.36.16.55l.12.56c0,.2,0,.39.07.58s.09.37.13.56,0,.39,0,.58.1.37.13.56,0,.39,0,.58,0,.38,0,.57.07.39.09.57,0,.39,0,.58.07.38.08.57,0,.39,0,.58,0,.39,0,.58"/><path class="cls-2" d="M91.71,58.38c0-.19-.12-.37-.17-.54s-.13-.36-.19-.54-.08-.38-.15-.55-.19-.34-.27-.51-.15-.35-.24-.52-.17-.34-.27-.49-.21-.33-.32-.48-.25-.29-.37-.44a5,5,0,0,0-.38-.41,5.3,5.3,0,0,0-.38-.43c-.15-.13-.29-.26-.43-.37s-.33-.2-.49-.31-.32-.22-.48-.31-.35-.15-.52-.23a4.83,4.83,0,0,0-.52-.23c-.18-.07-.35-.16-.52-.21l-.56-.15c-.19,0-.38,0-.56-.08l-.56-.09-.57-.07c-.32,0-.52,0-.57,0a5.6,5.6,0,0,1-.58,0c-.17,0-.37,0-.58,0s-.38,0-.58,0c-.45,0-.4-.38-.31-.56s.18-.35.26-.53.17-.36.25-.54.15-.36.22-.55.11-.38.16-.57.14-.37.18-.56c.14-.55-.19-.6-.37-.6a5.56,5.56,0,0,0-.62,0,4,4,0,0,0-.63,0,3.14,3.14,0,0,0-.59.21,4.38,4.38,0,0,0-.58.23l-.56.28c-.17.1-.33.23-.52.32s-.36.18-.56.26l-.6.19c-.18.05-.39.07-.6.11s-.4,0-.61.06-.4.07-.62.07a5.48,5.48,0,0,1-.61-.06,5.92,5.92,0,0,1-.62-.06,3.65,3.65,0,0,1-.59-.16,3.7,3.7,0,0,1-.59-.19,4.6,4.6,0,0,1-.55-.25c-.2-.1-.38-.17-.56-.27s-.35-.23-.54-.33a5.45,5.45,0,0,0-.58-.22,3.4,3.4,0,0,0-.61-.15,4.39,4.39,0,0,0-.61-.12c-.19,0-.4,0-.63,0l-.62,0a5.3,5.3,0,0,0-.62.11,3.52,3.52,0,0,0-.6.14,5,5,0,0,0-.57.27c-.19.1-.38.16-.57.26l-.54.3a5.44,5.44,0,0,1-.54.29,4.55,4.55,0,0,1-.59.18l-.6.14-.62.07c-.19,0-.4,0-.61,0l-.62,0c-.22,0-.41-.09-.61-.12a5.63,5.63,0,0,1-.61-.08A4.38,4.38,0,0,1,60,49c-.2-.08-.37-.2-.55-.29s-.38-.17-.56-.27l-.45-.23L57.93,48a5.11,5.11,0,0,0-.47-.21c-.16,0-.33,0-.51-.08-.41-.09-.46.29-.41.48l.15.54c.06.18.16.35.22.52s.09.37.16.54l.21.53c.08.17.18.33.26.49s.16.35.25.51.23.31.33.47a4.66,4.66,0,0,0,.3.47c.1.16.18.33.29.48s.25.29.37.43.21.31.34.45.26.27.39.41l.39.41c.13.13.31.22.44.34s.26.28.41.4.32.2.47.31l.44.35c.16.1.3.23.46.33s.34.17.5.26l.51.24.51.25.51.22c.17.07.34.18.51.24s.38.07.56.12.35.14.53.19.37,0,.55.09.37.1.55.13l.56.11.56.07h.56c.19,0,.37.05.56.05H70l.56,0c.18,0,.36-.08.55-.1s.37,0,.55,0l.55-.1.54-.13c.19-.05.35-.14.53-.19l.53-.17c.18-.06.36-.09.54-.16l.51-.22c.17-.08.32-.18.49-.27s.32-.17.49-.26.33-.17.48-.27a1.9,1.9,0,0,1,1-.29h.56l.56,0H79l.56,0,.55,0,.56,0h1.11c.2,0,.38,0,.56,0s.39.06.55.06.42,0,.56,0l.57,0a3.77,3.77,0,0,1,.58,0,2.94,2.94,0,0,1,.55.18,2.87,2.87,0,0,1,.49.31,3.74,3.74,0,0,1,.42.39,3.3,3.3,0,0,1,.37.44c.1.15.19.32.29.5a5,5,0,0,1,.25.52c.08.17.15.34.23.53s.11.35.17.55.15.35.2.54.07.37.12.57.12.36.17.56.06.37.11.57.09.37.13.56.11.37.15.56.07.38.12.57l.12.57.12.57c0,.19.07.38.11.57s.12.37.17.56.06.38.1.57.06.38.1.58.08.37.12.56.13.37.16.56,0,.39.09.58.11.37.15.56l.12.57c0,.19,0,.38.09.57s.09.38.13.57l.12.57c0,.19.09.38.13.57s.12.37.16.56,0,.39.09.57.08.38.12.57.07.38.11.57.07.39.11.57.11.38.15.56.09.39.13.57,0,.4.09.57a5.29,5.29,0,0,0,.14.57c0,.26.08.45.11.57s.12.33.17.54.06.36.09.56a5,5,0,0,1,.09.56,5.44,5.44,0,0,1,0,.57,5.62,5.62,0,0,1-.06.56,3.44,3.44,0,0,1-.21.53,3.54,3.54,0,0,1-.33.46,2.92,2.92,0,0,1-.39.4,2.8,2.8,0,0,1-.48.3,4.06,4.06,0,0,1-.51.24c-.17,0-.34.12-.54.17l-.56.08c-.18,0-.37,0-.56,0h-.57l-.58,0h-.57c-.18,0-.37,0-.57,0H85.2c-.19,0-.38,0-.58,0l-.57,0-.58,0c-.18,0-.37,0-.57,0l-.57,0c-.19,0-.38,0-.58,0s-.37,0-.57,0l-.57,0H80c-.19,0-.38,0-.57,0s-.38,0-.57,0-.39,0-.58,0-.38,0-.57,0h-.57c-.19,0-.38,0-.58,0l-.57,0-.58,0-.57,0c-.19,0-.38,0-.57,0h-.57c-.19,0-.38,0-.58,0s-.38,0-.57,0-.38,0-.57,0l-.58,0c-.19,0-.38,0-.57,0l-.58,0c-.19,0-.38,0-.57,0l-.57,0H68l-.57,0-.58,0H65.7l-.58,0-.57,0H64l-.58,0-.57,0-.57,0c-.2,0-.39.06-.58.06h-.57c-.19,0-.38,0-.58,0H60l-.57,0c-.19,0-.38,0-.58,0H57.67c-.19,0-.39-.06-.57-.06s-.39,0-.58,0-.38,0-.57,0H54.8l-.57,0c-.2,0-.38,0-.58,0h-.57c-.19,0-.38,0-.57,0s-.39,0-.58,0h-.57c-.19,0-.38,0-.58,0l-.57,0H49.06c-.19,0-.38,0-.57,0s-.38,0-.57,0-.39,0-.58,0h-.57l-.58,0-.57,0c-.19,0-.38,0-.57,0h-.58c-.19,0-.38.06-.57.06s-.38,0-.57,0H42.18c-.19,0-.38,0-.57,0l-.58,0h-.57l-.57,0c-.2,0-.39,0-.58,0H37.59c-.19,0-.38,0-.57,0l-.58,0H35.3c-.2,0-.39,0-.58,0s-.38.06-.57.06-.38-.06-.57-.06-.39.06-.58.06-.38,0-.57,0l-.57,0c-.2,0-.39.06-.58.06h-.57c-.19,0-.39,0-.58,0h-.57c-.19,0-.38,0-.57,0s-.39,0-.58,0-.38,0-.57,0l-.57,0c-.2,0-.39-.06-.58-.06h-.57c-.19,0-.38,0-.57,0H25c-.19,0-.38,0-.57,0s-.38,0-.57,0l-.58,0-.57,0H21.53c-.2,0-.39,0-.57,0l-.57,0h-.58c-.21,0-.4,0-.57,0s-.44,0-.58,0-.38,0-.56,0-.39,0-.56-.07a4.32,4.32,0,0,1-.56-.1c-.19,0-.39-.07-.55-.13a4,4,0,0,1-.51-.25,2.52,2.52,0,0,1-.49-.28,2.13,2.13,0,0,1-.38-.42,2.88,2.88,0,0,1-.35-.45,3.75,3.75,0,0,1-.15-.55,3.57,3.57,0,0,1-.11-.55,5.43,5.43,0,0,1,0-.57c0-.19,0-.39.05-.57s.09-.38.13-.55.13-.38.17-.54.07-.31.14-.55.11-.34.16-.55.07-.36.12-.56.07-.36.12-.55.15-.35.2-.54.08-.36.14-.55.06-.37.12-.56.13-.35.18-.54.09-.36.14-.55l.15-.55c0-.18.07-.37.12-.56s.09-.36.14-.55.14-.35.19-.54.07-.37.12-.55l.15-.55.15-.55c0-.18.11-.36.16-.55s.06-.37.11-.56.14-.35.18-.54a5.41,5.41,0,0,0,.12-.55c.05-.19.13-.36.18-.55s.07-.37.11-.55.11-.37.15-.55.13-.36.18-.55.09-.37.13-.55.13-.36.18-.54.09-.37.13-.55.08-.38.13-.56.08-.38.13-.56.14-.36.19-.53.11-.38.16-.55.1-.38.14-.55.1-.38.16-.55.09-.39.16-.56.16-.36.23-.53.19-.34.28-.49.16-.37.26-.52a3.22,3.22,0,0,1,.4-.42,3.92,3.92,0,0,1,.4-.41,2.46,2.46,0,0,1,.51-.26,2.41,2.41,0,0,1,.54-.21,5.58,5.58,0,0,1,.57-.08c.19,0,.38,0,.57,0s.4,0,.58,0,.4,0,.58,0l.57,0a1.38,1.38,0,0,1,.95.42c.14.13.25.28.38.41s.28.25.41.37.27.25.42.37.28.24.43.35l.45.33c.16.1.3.22.46.31s.33.19.49.27.35.13.52.2.33.19.5.26.37.09.54.14l.53.17.55.12.54.13.55.08.56,0,.56,0c.19,0,.38,0,.57,0s.39,0,.57,0,.39-.08.57-.11l.57-.12c.18,0,.38,0,.56-.09s.37-.14.54-.2a5,5,0,0,0,.54-.21c.18-.07.37-.11.55-.19s.32-.21.49-.3.34-.18.5-.28l.49-.29c.16-.11.3-.25.45-.37l.45-.35.42-.39.42-.4c.13-.14.26-.27.38-.42s.25-.3.36-.45.22-.32.33-.48.23-.31.33-.47.2-.32.29-.5.16-.34.24-.52.16-.35.23-.52.12-.37.18-.55l.18-.55c.15-.47-.14-.6-.28-.6a5.9,5.9,0,0,0-.63,0,3.62,3.62,0,0,0-.62.11,4.94,4.94,0,0,0-.57.26c-.19.09-.36.2-.54.3s-.36.14-.55.23a3.37,3.37,0,0,1-.54.22,4.48,4.48,0,0,1-.55.21,5.11,5.11,0,0,1-.59.06c-.18,0-.38,0-.59,0s-.41,0-.59,0-.4,0-.58-.07a4.25,4.25,0,0,1-.57-.17,4.4,4.4,0,0,1-.53-.24c-.19-.09-.38-.14-.55-.23s-.35-.21-.54-.3a3.06,3.06,0,0,0-.58-.24,4.39,4.39,0,0,0-.61-.12,5.63,5.63,0,0,0-.63-.06,5.56,5.56,0,0,0-.62,0,3.59,3.59,0,0,0-.62.12,3.36,3.36,0,0,0-.58.24c-.19.09-.36.2-.54.3s-.34.17-.53.26a5.44,5.44,0,0,1-.54.25c-.17.06-.36.09-.57.14a4.56,4.56,0,0,1-.58.12c-.18,0-.38,0-.59,0a5.54,5.54,0,0,1-.59,0,4.93,4.93,0,0,1-.58-.06,4.24,4.24,0,0,1-.57-.18,4.48,4.48,0,0,1-.55-.21l-.51-.28c-.15-.09-.3-.16-.46-.24a3.43,3.43,0,0,0-.48-.19,4.77,4.77,0,0,0-.49-.15l-.51,0a2.37,2.37,0,0,0-.57-.05l-.57,0-.57.09-.55.1-.56.13c-.18.06-.34.17-.52.24s-.36.1-.54.18-.32.19-.49.29-.33.19-.49.3-.29.24-.44.36a4.94,4.94,0,0,0-.44.36c-.14.13-.26.27-.39.41s-.28.26-.4.41l-.36.44c-.11.16-.19.33-.3.49s-.2.32-.29.49l-.27.5c-.08.17-.12.36-.2.54s-.16.34-.22.52a5.7,5.7,0,0,0-.16.55,5.6,5.6,0,0,0-.17.54c-.08.28-.09.19-.19.55,0,.16-.08.35-.14.56s-.1.36-.16.56-.06.37-.11.56-.14.36-.19.55-.06.38-.11.57-.15.35-.2.54-.09.37-.14.56-.12.36-.17.55-.05.39-.1.58-.11.36-.16.55-.13.36-.18.55-.09.37-.14.55-.11.37-.16.56l-.15.56c-.05.18-.12.36-.17.55s-.05.38-.1.57-.12.37-.17.55-.09.38-.14.56-.11.37-.16.56-.13.36-.18.54-.08.38-.13.57-.09.37-.14.56-.14.36-.19.55-.09.37-.14.55-.11.38-.16.56l-.16.55c-.05.19-.09.38-.15.56s-.07.39-.12.57-.14.36-.19.54-.06.39-.11.57-.11.38-.16.55-.11.38-.16.56-.06.39-.11.57-.11.38-.16.55-.13.38-.17.55a5.67,5.67,0,0,0-.1.57,5.48,5.48,0,0,0-.1.56,5.78,5.78,0,0,0,0,.58,5.51,5.51,0,0,0,.06.57,5.51,5.51,0,0,0,.06.57,7.42,7.42,0,0,0,.3,1.1c.06.18.11.37.19.55s.18.33.27.5.24.3.35.46.2.33.32.47a5.22,5.22,0,0,0,.43.39,3.87,3.87,0,0,0,.41.4c.15.11.28.25.44.36s.35.16.52.26.3.23.48.32.36.12.54.2.35.16.53.22l.56.15c.18,0,.38,0,.57.07s.36.09.56.12l.57,0c.19,0,.37.08.57.09h1.14l.58,0h1.71c.19,0,.38,0,.58,0s.37,0,.57,0h2.86l.57,0h1.14l.57,0c.19,0,.38,0,.58,0l.57,0,.57,0,.57,0c.19,0,.38,0,.58,0h1.14c.19,0,.38,0,.57,0l.57,0,.57,0c.19,0,.38,0,.58,0s.38,0,.57,0,.38,0,.57,0,.38,0,.57,0H36.2c.19,0,.38,0,.58,0s.38-.06.57-.06h1.14c.19,0,.38,0,.57,0s.38,0,.58,0,.38,0,.57,0h.57l.57,0h1.14l.58,0,.57,0,.57,0c.19,0,.38,0,.57,0l.57,0h1.72c.19,0,.38,0,.57,0h.58c.18,0,.38,0,.57,0l.57,0H50.5c.19,0,.38,0,.57,0s.38,0,.57,0h.58c.19,0,.38,0,.57,0s.38,0,.57,0h.57c.19,0,.38,0,.57,0s.38,0,.58,0h.57l.57,0h1.15c.19,0,.38,0,.57,0s.38,0,.57,0h1.14l.57,0h.58l.57,0,.57,0,.57,0c.19,0,.38,0,.58,0h.57l.57,0,.57,0c.19,0,.38,0,.57,0s.38,0,.57,0,.39,0,.58,0l.57,0h.57l.57,0,.57,0,.58,0c.19,0,.38,0,.57,0l.57,0,.57,0h1.15c.19,0,.38,0,.57,0s.38,0,.57,0h1.14l.57,0h1.72l.57,0H78l.58,0,.57,0c.19,0,.38,0,.57,0s.38,0,.57,0h.58l.57,0L82,87c.19,0,.38,0,.57,0s.39,0,.57,0,.39-.06.57-.06.39,0,.58,0,.38,0,.57,0h1.71l.58,0c.2,0,.4,0,.57,0h.57c.2,0,.39,0,.57,0s.39,0,.58,0l.57-.08c.19,0,.38,0,.57-.06s.36-.14.54-.18.39,0,.57-.1.37-.13.54-.2.35-.17.52-.25.34-.18.51-.27.34-.18.49-.29.32-.21.47-.33a5.14,5.14,0,0,0,.4-.41c.14-.13.29-.26.42-.4s.23-.31.34-.46.22-.31.32-.47.22-.33.3-.5.09-.37.16-.55a5,5,0,0,0,.21-.54,5.39,5.39,0,0,0,.08-.56c0-.19.1-.38.12-.57s0-.38,0-.57a5.46,5.46,0,0,0,0-.57c0-.2,0-.39-.07-.58s-.11-.36-.15-.55-.07-.36-.11-.56-.09-.36-.14-.56-.11-.35-.16-.55-.06-.36-.1-.56-.13-.36-.17-.54-.07-.37-.11-.57l-.12-.55c0-.19-.09-.37-.13-.56s-.09-.37-.14-.56-.1-.36-.15-.55-.07-.37-.12-.56l-.12-.55c0-.19-.11-.37-.15-.55s-.07-.38-.11-.56-.09-.38-.13-.56-.1-.37-.14-.56-.1-.37-.14-.55-.06-.38-.1-.57-.06-.37-.1-.56-.12-.36-.16-.55-.06-.38-.1-.56l-.12-.56c0-.18-.1-.37-.14-.55s-.12-.37-.16-.55-.07-.38-.11-.56,0-.38-.09-.57-.11-.37-.16-.55-.09-.37-.13-.56-.06-.37-.11-.56-.06-.38-.1-.56-.15-.36-.19-.54-.08-.38-.12-.56-.07-.39-.1-.56-.1-.39-.14-.56-.06-.4-.1-.56c-.08-.36-.12-.56-.12-.56"/><path class="cls-2" d="M59.93,56.18c-.17.09-.35.16-.52.23s-.38.07-.56.13-.35.16-.53.22-.37.09-.55.15l-.55.13-.55.13-.55.14-.56.11c-.19,0-.38,0-.57,0s-.38,0-.57.05-.37.08-.56.1l-.57,0c-.19,0-.38,0-.56.06h-.57c-.2,0-.38,0-.57,0l-.57,0h-.57l-.57-.07c-.19,0-.38-.07-.56-.1s-.38,0-.57-.08l-.57-.06c-.18,0-.36-.11-.55-.15s-.38,0-.56-.1-.37-.11-.55-.16L46,56.76l-.54-.18-.53-.2-.53-.22a.49.49,0,0,1-.21-.71c.11-.16.19-.34.29-.51s.19-.34.28-.52.14-.36.22-.54.18-.35.25-.54.09-.38.15-.57l.18-.56c0-.19.1-.38.14-.57s0-.39.07-.59,0-.39.07-.58,0-.39,0-.59a5.65,5.65,0,0,0,0-.59c0-.19,0-.38,0-.57s-.07-.38-.09-.57,0-.39,0-.58a5,5,0,0,0-.11-.56,4.82,4.82,0,0,0-.1-.57,5.15,5.15,0,0,0-.16-.56.86.86,0,0,1,.18-1,3.21,3.21,0,0,0,.31-.5c.1-.17.17-.35.26-.52s.18-.35.25-.53a3.62,3.62,0,0,0,.17-.56,1.17,1.17,0,0,1,.62-.87c.14-.08.32-.14.51-.23s.32-.17.51-.24.36-.09.55-.15a4.1,4.1,0,0,1,.53-.16,4.84,4.84,0,0,1,.54-.17c.18,0,.37,0,.57-.07l.56-.06h1.12l.57.06a5.36,5.36,0,0,1,.54.14c.18,0,.38,0,.56.07s.36.11.54.18.34.16.52.23a.73.73,0,0,1,.44.8,3.82,3.82,0,0,0-.09.59c0,.2-.09.39-.1.59s0,.4,0,.6,0,.4,0,.6,0,.38,0,.57,0,.37,0,.56.07.37.09.56,0,.37,0,.56,0,.37.09.55.1.37.14.55.07.37.12.55.15.35.21.52.11.36.18.54.1.36.17.54.17.33.25.5.13.36.21.52.19.33.28.49.18.34.28.5.24.29.34.45.17.33.28.48.27.28.38.42.21.32.33.46.22.31.35.44.28.26.41.39.29.24.43.37l.41.38a.36.36,0,0,1-.1.6"/><path class="cls-3" d="M42.86,41.68a2.71,2.71,0,0,1-.12.58c-.07.19-.26.55-.65.08-.13-.15-.26-.3-.4-.44l-.43-.4c-.15-.13-.29-.28-.44-.4s-.32-.23-.48-.35-.33-.21-.5-.31c-.49-.29-.45-.22-.43-1.14,0-.6.13-.74.66-.76a2.32,2.32,0,0,1,.59.05,2.69,2.69,0,0,1,.57.17,3,3,0,0,1,.52.31,2.38,2.38,0,0,1,.45.39,2.89,2.89,0,0,1,.33.5,3.3,3.3,0,0,1,.27.53,3.25,3.25,0,0,1,.12.59,3.05,3.05,0,0,1-.06.6m-10.25-.26-.53,0a5,5,0,0,1-.54,0c-.2,0-.38,0-.54,0s-.39,0-.54-.07c-.52-.08-.58-.1-.55-.55,0-.24.13-.41.56-.4l.53,0h.54c.17,0,.35,0,.54,0l.54-.05c.44,0,.56.12.56.42s0,.48-.57.52m-2.87-4.48c-.1-.33,0-.53.35-.53s.54,0,.72.53c0,.15.07.34.12.54s.1.35.13.54,0,.36.06.56c0,.45-.08.54-.51.54s-.51-.15-.52-.54c0-.2-.08-.38-.1-.56s0-.38-.08-.55-.13-.38-.17-.53m-1,6.6-.37.47c-.11.14-.21.32-.32.49s-.22.32-.32.5a5.29,5.29,0,0,0-.29.52,3.26,3.26,0,0,0-.26.53c-.16.52-.41.54-.65.54l-.48,0c-.48,0-.37-.36-.31-.53s.14-.36.21-.54.12-.36.21-.53.18-.35.27-.5.23-.33.33-.47.25-.33.35-.46a1,1,0,0,1,.92-.45c.28,0,.28,0,.57,0s.39.17.14.44m16.66-3.26c0-.18-.07-.38-.12-.56s-.13-.35-.2-.52-.15-.35-.24-.51a4.71,4.71,0,0,0-.29-.48,4.82,4.82,0,0,0-.36-.43c-.13-.13-.29-.23-.43-.36s-.28-.24-.43-.35-.33-.18-.49-.27a4.57,4.57,0,0,0-.47-.29c-.18-.07-.36-.11-.54-.17l-.54-.13-.55-.08c-.71,0-.48-.27-.34-.58s0-.51-.28-.51H38.43c-.29,0-.29,0-.58,0h-.57c-.29,0-.29,0-.57,0h-.57c-.29,0-.29,0-.58,0H35c-.28,0-.28,0-.57,0H33.28c-.29,0-.29-.05-.57-.05s-.29.05-.58.05H31c-.29,0-.29,0-.57,0s-.29,0-.58,0h-.57c-.29,0-.29,0-.57,0s-.29,0-.57,0-.49.23-.34.56a3.86,3.86,0,0,1,.29.51c.07.16.1.36.17.55s.12.36.18.55.11.37.16.56.11.36.15.56.1.37.13.56,0,.39,0,.58a.94.94,0,0,1-.49,1c-.17.1-.3.25-.46.36l-.47.35-.43.39c-.15.13-.31.25-.45.39s-.25.3-.38.44-.28.27-.4.43-.24.3-.35.46-.18.35-.29.52-.22.32-.31.49-.16.35-.24.53a5.12,5.12,0,0,0-.25.53c-.08.18-.18.35-.24.53s-.09.38-.14.57-.1.38-.14.57-.12.37-.15.56a5.81,5.81,0,0,0-.09.58c0,.2,0,.39,0,.59s-.05.39-.05.58,0,.43,0,.64c0,.66.45.65.61.67s.36.08.52.11.37.06.53.12.33.15.48.23.3.19.45.27a5.85,5.85,0,0,0,.56.28,3.31,3.31,0,0,0,.58.21,4.88,4.88,0,0,0,.62.12,5.22,5.22,0,0,0,.62.06,6,6,0,0,0,.62,0,3.2,3.2,0,0,0,.61-.15,3,3,0,0,0,.58-.23c.19-.09.37-.19.55-.29s.33-.19.52-.28A4.48,4.48,0,0,1,32,50.8a4.76,4.76,0,0,1,.57-.13,4.56,4.56,0,0,1,.58-.12c.18,0,.38,0,.59,0s.41,0,.59,0a4.65,4.65,0,0,1,.58.1,4.16,4.16,0,0,1,.58.13A5.46,5.46,0,0,1,36,51l.53.27c.18.1.34.23.53.32a4.53,4.53,0,0,0,.59.21,3.5,3.5,0,0,0,.62.1,5.7,5.7,0,0,0,.62,0,4,4,0,0,0,.62,0,2.84,2.84,0,0,0,.62-.12,3.4,3.4,0,0,0,.59-.19c.19-.09.35-.23.54-.32a5.06,5.06,0,0,1,.52-.29,3.37,3.37,0,0,1,.54-.22,2.94,2.94,0,0,1,.57-.17,4.78,4.78,0,0,1,.59-.07l.59,0c.19,0,.58,0,.61-.62,0-.21,0-.42,0-.64s0-.37,0-.55,0-.37,0-.55,0-.37-.05-.55-.11-.36-.14-.54-.07-.36-.12-.54-.09-.36-.15-.53L44,45.49c-.07-.17-.2-.41.18-.93.12-.16.25-.3.36-.45s.24-.31.34-.47.14-.36.22-.54.17-.35.22-.53a3.78,3.78,0,0,0,.1-.57,3.7,3.7,0,0,0,.07-.57,3.74,3.74,0,0,0,0-.58,5.51,5.51,0,0,0-.06-.57"/><path class="cls-3" d="M49.66,21.48c-.2,0-.39,0-.58.05l-.58,0c-.2,0-.39.05-.57.06h-.58l-.58,0c-.2,0-.4,0-.58,0s-.4-.06-.58-.08l-.58,0-.57-.09c-.61-.09-.55-.4-.55-.71s0-.31,0-.62a.46.46,0,0,1,.57-.51l.57.07c.18,0,.37.07.58.08s.37,0,.58,0,.38,0,.58,0,.38,0,.58,0,.37,0,.58,0l.57,0,.58-.05.58,0c.32,0,.51,0,.55.54,0,.31,0,.31,0,.62,0,.6-.19.62-.59.68m-6-8.24c0-.19,0-.38-.09-.54s-.14-.37-.19-.52c-.11-.33,0-.54.32-.49a3.13,3.13,0,0,0,.53,0h.52a.63.63,0,0,1,.72.5c0,.15.08.34.14.54s.13.33.18.51.1.35.14.54.05.35.08.54.06.36.09.54.08.35.11.54,0,.36.05.55,0,.36,0,.55a.48.48,0,0,1-.5.55c-.27,0-.27,0-.52,0s-.27.05-.53.05a.57.57,0,0,1-.52-.59c0-.18,0-.37,0-.54s0-.37-.07-.55,0-.36-.08-.54-.05-.37-.08-.54-.06-.37-.1-.54-.13-.36-.17-.53M42,25.28c-.12.12-.22.29-.36.46s-.28.25-.41.41-.21.32-.33.48l-.36.46c-.12.16-.22.32-.33.49s-.24.3-.34.47-.18.34-.28.51-.23.32-.32.49l-.27.52c-.09.17-.12.37-.2.55s-.17.35-.24.53-.11.37-.18.56-.13.53-.76.53c-.28,0-.28,0-.56,0h-.57c-.28,0-.28-.05-.56-.05-.62,0-.5-.35-.45-.53s.15-.35.21-.53l.18-.53c.07-.18.13-.36.2-.53s.12-.36.19-.53.2-.32.29-.49.18-.33.27-.49.13-.36.23-.52.24-.3.33-.45l.31-.48L38,26.2c.12-.17.24-.31.34-.45s.24-.32.35-.44a1,1,0,0,1,.93-.44h.56c.28,0,.28,0,.56,0s.28,0,.56,0,.28,0,.56,0,.38.11.13.38m20.45-7.65c0-.19,0-.38.06-.56s0-.38,0-.57a.69.69,0,0,1,.7-.65,8.7,8.7,0,0,1,1.76.06c.19,0,.39.08.58.14s.37.13.55.21.35.19.52.28a5.39,5.39,0,0,1,.5.33,4,4,0,0,1,.45.37,5.4,5.4,0,0,1,.41.42,3.91,3.91,0,0,1,.36.47,4.26,4.26,0,0,1,.32.5,5.14,5.14,0,0,1,.29.51,5.37,5.37,0,0,1,.21.56,5.86,5.86,0,0,1,.1.58,5.77,5.77,0,0,1,.08.58c0,.2.05.39.05.59a5.63,5.63,0,0,1-.05.59c0,.19-.07.39-.11.58s-.16.37-.22.55a5.31,5.31,0,0,1-.2.56c-.29.57-.54.19-.67,0s-.27-.27-.4-.42-.25-.29-.38-.44L67,22.48c-.14-.14-.26-.29-.4-.43s-.3-.24-.44-.37-.27-.28-.42-.41-.33-.21-.47-.33-.28-.28-.43-.4l-.47-.34-.47-.35-.5-.29c-.16-.11-.34-.18-.51-.29s-.45-.31-.44-1.08a5.28,5.28,0,0,1,0-.56m-5.88,20.5c.09-.17.21-.33.3-.5s.19-.33.3-.49.17-.35.28-.5.24-.31.35-.46.21-.33.33-.48.28-.27.4-.42.23-.31.36-.45.27-.27.41-.4l.42-.4.43-.38c.15-.13.28-.27.44-.39s.33-.19.49-.3.31-.24.47-.34c0-.19,0-.38,0-.55l-.06-.55c0-.19-.07-.37-.1-.55s0-.37-.08-.54-.12-.36-.17-.53-.13-.35-.19-.52-.07-.37-.14-.53-.17-.34-.24-.5-.18-.33-.26-.49-.16-.34-.25-.49a4.83,4.83,0,0,0-.29-.47c-.1-.18-.18-.35-.27-.48-.19-.29-.05-.42.23-.42h.56c.28,0,.28,0,.56,0s.28,0,.56,0,.28,0,.56,0,.28,0,.56,0,.28,0,.56,0,.28,0,.56,0,.28,0,.56,0h.56c.28,0,.28,0,.56,0s.28,0,.56,0h.56c.29,0,.29,0,.56,0h.56c.28,0,.28,0,.56,0s.28,0,.56,0h1.12v0c.29,0,.29,0,.57,0s.28,0,.57,0,.28,0,.56,0H72c.28,0,.28-.05.56-.05a.86.86,0,0,0,.87-.47c.09-.17.15-.35.23-.53s.11-.37.17-.55.17-.35.22-.53a5.78,5.78,0,0,0,.12-.57,5.59,5.59,0,0,0,.12-.56c0-.19.12-.38.14-.56s.05-.39.06-.58a5.63,5.63,0,0,0,0-.58c0-.19,0-.38,0-.58s0-.38,0-.57-.11-.38-.14-.57,0-.38-.06-.57-.16-.36-.21-.54-.08-.38-.14-.56l-.21-.53c-.08-.18-.17-.35-.25-.52s-.19-.33-.29-.49-.17-.35-.28-.51-.23-.3-.34-.45-.24-.3-.37-.45-.26-.27-.39-.41-.25-.3-.38-.43-.31-.24-.45-.36l-.45-.34c-.16-.12-.33-.21-.48-.31s-.3-.25-.47-.34-.34-.18-.51-.27L68.54,12c-.17-.08-.34-.18-.52-.25a5.47,5.47,0,0,0-.55-.13l-.55-.17c-.19,0-.36-.12-.55-.16s-.38,0-.57-.08l-.57-.06a5.46,5.46,0,0,1-.57,0,.37.37,0,0,1-.34-.55c.09-.2.18-.37.26-.53s.17-.39.25-.54c.17-.34,0-.53-.31-.53H64c-.28,0-.28,0-.57,0s-.29-.05-.58-.05h-.58c-.28,0-.28.06-.57.06s-.29,0-.58,0H59.92c-.29,0-.29,0-.57,0s-.29.05-.58.05-.29-.06-.57-.06H57.05c-.29,0-.29,0-.58,0s-.29,0-.58,0h-.57c-.29,0-.29,0-.58,0h-.57c-.29,0-.29.05-.58.05S53.31,9,53,9s-.29,0-.58,0-.28,0-.57,0-.29,0-.58,0-.29,0-.57,0-.29,0-.58,0-.29,0-.57,0H49c-.28,0-.28,0-.57,0s-.29,0-.58,0H46.69c-.29,0-.29,0-.58,0s-.28,0-.57,0L45,9c-.28,0-.28,0-.57,0h-.58c-.28,0-.28,0-.57,0s-.29,0-.58,0-.28,0-.57,0h-.58c-.28,0-.28,0-.57,0l-.58,0c-.29,0-.29,0-.57,0s-.45.15-.29.48c.08.14.16.31.25.51s.11.35.19.54.19.32.27.5.12.36.19.54.16.34.23.52.13.35.2.54.09.36.15.55.09.36.14.55.13.36.18.54.06.37.11.56.12.36.15.55.06.38.09.56,0,.38.07.57.09.37.11.56,0,.38,0,.57a5.42,5.42,0,0,1,0,.57c0,.76-.3,1-.47,1.08s-.34.18-.5.28-.33.2-.48.31-.31.23-.46.35-.3.24-.45.35l-.45.36-.44.38-.45.36-.43.37c-.14.14-.26.29-.39.43s-.29.25-.42.39-.24.31-.36.45-.27.28-.39.43-.22.31-.34.46-.25.29-.36.45-.22.31-.33.47-.25.3-.36.46-.2.32-.3.48-.18.35-.27.51l-.3.5c-.08.16-.18.33-.27.5s-.17.34-.25.52-.2.33-.27.5-.12.37-.19.55-.14.36-.21.54l-.2.54c-.06.18-.11.36-.17.55s-.13.36-.18.54-.11.37-.16.55-.07.38-.11.57-.11.37-.15.55,0,.39-.07.58a.43.43,0,0,0,.47.55l.58,0c.29,0,.29,0,.58,0h1.73c.29,0,.29,0,.57,0l.58,0h.58c.29,0,.29,0,.58,0s.29,0,.58,0,.29,0,.57,0,.29,0,.58,0h1.74c.29,0,.29,0,.57,0H42c.29,0,.5.25.3.46s-.35.44.31.68c.18.06.38.1.56.18s.34.21.51.31.36.17.52.28.32.24.47.37a4.07,4.07,0,0,1,.41.42,5.32,5.32,0,0,1,.38.45,3.21,3.21,0,0,1,.34.48,5.24,5.24,0,0,1,.3.51c.09.18.19.35.26.53s.13.36.19.56a5.66,5.66,0,0,1,.2.58c0,.21,0,.42.05.62,0,.42.31.42.51.31s.35-.12.54-.2.33-.17.52-.24l.54-.18c.18,0,.35-.13.55-.17s.37,0,.56-.09.37-.09.56-.11.38,0,.57,0a5.44,5.44,0,0,1,.58-.05c.18,0,.37,0,.57.06s.37.06.56.09.38,0,.57.08a5.54,5.54,0,0,1,.55.14c.18,0,.36.1.55.17s.35.14.53.22.52.23.68-.29c.06-.18.09-.37.16-.55s.13-.37.2-.55.18-.34.25-.52l.24-.52"/><path class="cls-3" d="M80.31,35.65a2.92,2.92,0,0,1-.21.56c-.33.59-.51.24-.64.1s-.24-.3-.37-.44-.29-.25-.43-.39l-.41-.4c-.14-.13-.27-.28-.41-.4l-.47-.35a5.72,5.72,0,0,0-.48-.32c-.15-.1-.3-.22-.47-.32-.38-.2-.57-.32-.5-1,0-.2.08-.4.11-.59.11-.58.44-.65.63-.66a3.37,3.37,0,0,1,1.16.12,3.6,3.6,0,0,1,.54.22,2.13,2.13,0,0,1,1,.65,4.07,4.07,0,0,1,.41.42,3.74,3.74,0,0,1,.32.49,5.22,5.22,0,0,1,.18.56,3.06,3.06,0,0,1,.11.59,2.35,2.35,0,0,1,0,.59,4.09,4.09,0,0,1-.07.6m-12.72-.6-.58,0c-.2,0-.4,0-.58,0l-.58,0c-.21,0-.4,0-.57,0s-.43,0-.59,0c-.5-.09-.55-.15-.55-.71,0-.4.18-.52.55-.47l.58,0,.58.05h.58c.18,0,.38,0,.58,0s.38,0,.58-.07.58-.06.58.53,0,.61-.58.68M64,29.86c0-.22-.12-.4-.17-.56-.11-.35-.07-.55.5-.58a.71.71,0,0,1,.84.58c0,.16.13.34.19.55s.06.37.1.58.07.37.1.57,0,.38.06.58c0,.48-.09.54-.64.56-.33,0-.65,0-.71-.56,0-.2,0-.4,0-.59a4.78,4.78,0,0,0-.12-.57c0-.2-.08-.39-.12-.56m-1.22,7.71c-.11.12-.25.26-.38.43s-.2.32-.32.49-.25.28-.36.45-.18.33-.29.5l-.28.5c-.09.17-.21.33-.29.51s-.11.36-.18.55c-.15.46-.32.54-.79.53h-.6c-.56,0-.49-.34-.44-.52s.12-.36.19-.53a4.5,4.5,0,0,1,.2-.51c.08-.18.13-.36.21-.52s.22-.32.31-.47a4.22,4.22,0,0,1,.3-.47c.11-.17.16-.36.26-.5s.28-.29.38-.41a1.25,1.25,0,0,1,.88-.43h1.08c.26,0,.36.13.12.4m20.7-4.13a3.37,3.37,0,0,0-.12-.55,5.43,5.43,0,0,0-.17-.53,4.71,4.71,0,0,0-.21-.52,4.76,4.76,0,0,0-.31-.47c-.1-.15-.18-.33-.29-.47s-.28-.26-.4-.4-.23-.29-.37-.42a4.82,4.82,0,0,0-.43-.36c-.15-.11-.3-.23-.46-.33a4.52,4.52,0,0,0-.49-.25c-.17-.09-.35-.14-.52-.21s-.34-.16-.51-.22-.35-.14-.53-.19-.38,0-.56-.06-.37-.09-.55-.1-.59-.08-.39-.45c.08-.18.18-.32.24-.44.14-.29,0-.45-.34-.43S76.79,27,76.5,27H75.37c-.29,0-.29.06-.57.06s-.29,0-.57,0h-.57c-.29,0-.29,0-.57,0h-.57c-.28,0-.28.06-.57.06s-.28,0-.57,0-.28,0-.57,0-.28,0-.56,0-.29,0-.57,0-.29,0-.57,0-.29,0-.57,0-.29,0-.57,0H67.4c-.28,0-.28,0-.57,0s-.28,0-.57,0H65.13c-.29,0-.29,0-.57,0s-.29,0-.57,0-.29,0-.57,0-.28,0-.57,0-.28,0-.57,0-.28,0-.57,0-.45.16-.29.5c.08.15.16.33.25.54s.12.36.2.56.16.35.23.55.15.36.21.56.09.37.14.57.12.38.16.57.08.39.11.59,0,.39,0,.6.08.38.1.58a1,1,0,0,1-.48,1.05c-.17.1-.34.18-.5.29s-.33.21-.48.33-.29.26-.44.38-.31.23-.45.36-.26.29-.4.43l-.42.4c-.13.14-.27.28-.39.42s-.22.33-.34.48-.24.3-.35.46-.25.3-.35.46-.2.34-.3.5l-.27.51-.26.52c-.08.18-.18.35-.25.52s-.16.36-.23.54-.11.37-.17.55-.09.38-.14.57-.1.37-.14.56-.07.38-.11.57-.09.38-.11.57-.07.38-.09.57,0,.39,0,.58,0,.39,0,.58,0,.36,0,.53,0,.36,0,.53a.61.61,0,0,0,.61.57,4.54,4.54,0,0,1,.55.08c.19,0,.36.12.53.17a5.24,5.24,0,0,1,.52.18c.18.08.36.13.52.21l.48.27.55.31a4.87,4.87,0,0,0,.57.24,4.68,4.68,0,0,0,.6.21c.18,0,.4,0,.62.05h.63a6.12,6.12,0,0,0,.62,0,5.36,5.36,0,0,0,.62-.1,4.78,4.78,0,0,0,.6-.15,3.38,3.38,0,0,0,.58-.25c.19-.09.36-.21.54-.31s.37-.16.56-.26a5.44,5.44,0,0,1,.54-.29c.18-.07.38-.14.59-.2s.39-.07.61-.11.4,0,.61-.06.39-.06.61-.06a5.87,5.87,0,0,1,.62,0,3.75,3.75,0,0,1,.61.08,4.48,4.48,0,0,1,.6.13,4.37,4.37,0,0,1,.58.22,5.19,5.19,0,0,1,.57.23l.54.29c.19.11.35.24.54.33a5.12,5.12,0,0,0,.59.21,4.53,4.53,0,0,0,.59.21c.19,0,.4,0,.63.06s.4,0,.62,0,.43,0,.63,0a4.94,4.94,0,0,0,.61-.09c.22,0,.43-.09.61-.15s.39-.17.58-.26l.55-.29c.17-.1.36-.18.55-.27s.36-.18.56-.26a6.11,6.11,0,0,1,.57-.24,5.33,5.33,0,0,1,.6-.11,5.12,5.12,0,0,1,.61-.11c.2,0,.4,0,.62,0s.65,0,.74-.54a4.55,4.55,0,0,0,0-.53c0-.18,0-.36,0-.54s0-.37,0-.55,0-.37,0-.55,0-.37,0-.55,0-.37-.06-.55-.07-.37-.11-.55a5.23,5.23,0,0,0-.12-.54c0-.18-.09-.36-.14-.54s-.1-.35-.16-.53a2.25,2.25,0,0,0-.2-.51.68.68,0,0,1,.14-.92,4.89,4.89,0,0,0,.39-.4q.18-.22.33-.45a4.66,4.66,0,0,0,.25-.5,3.27,3.27,0,0,0,.24-.5,4.55,4.55,0,0,0,.21-.51c.06-.17.15-.34.2-.52a5.14,5.14,0,0,0,.06-.55,3.55,3.55,0,0,0,.06-.55,5.24,5.24,0,0,0,0-.56c0-.18,0-.37,0-.55a4.72,4.72,0,0,0-.13-.54"/><path class="cls-3" d="M87.22,47.46c-.49,0-.6-.07-.6-.46s0-.34.63-.34a.33.33,0,0,1,.35.34c0,.2-.18.46-.38.46m.28-1.31c-.22,0-.22,0-.43,0s-.22,0-.44,0c-.57,0-.63.15-.63.6,0,.3,0,.3,0,.6s0,.31,0,.61,0,.3,0,.6c0,.48.08.59.29.59.37,0,.33-.09.33-.63s0-.63.24-.51.13.08.26.3.11.22.23.44,0,.32.28.42a.81.81,0,0,0,.4,0c.27,0,.25-.25.11-.47s-.15-.21-.28-.43c-.27-.44-.15-.42.19-.64a.68.68,0,0,0,.3-.66.85.85,0,0,0-.26-.6.82.82,0,0,0-.6-.27"/><path class="cls-3" d="M89.08,48.25a2.87,2.87,0,0,1-.21.51,1.79,1.79,0,0,1-.34.44,2.29,2.29,0,0,1-.4.36,2.09,2.09,0,0,1-.49.26,2,2,0,0,1-.55.07,1.65,1.65,0,0,1-.54-.09,1.89,1.89,0,0,1-.49-.25,2,2,0,0,1-.44-.32,2.09,2.09,0,0,1-.26-.49,1.83,1.83,0,0,1-.21-.5,2.53,2.53,0,0,1-.09-.55,2.43,2.43,0,0,1,.08-.54,3.53,3.53,0,0,1,.5-1,2,2,0,0,1,.4-.37,2.36,2.36,0,0,1,.52-.21,1.88,1.88,0,0,1,.53-.07,2,2,0,0,1,.55,0,2.5,2.5,0,0,1,.5.23,2.38,2.38,0,0,1,.4.38,1.92,1.92,0,0,1,.29.45,1.79,1.79,0,0,1,.22.51,2.41,2.41,0,0,1,0,.54,2.6,2.6,0,0,1,0,.56m.61-1.64a3,3,0,0,0-.24-.51,2,2,0,0,0-.79-.77,2.34,2.34,0,0,0-.47-.3,2.55,2.55,0,0,0-.54-.15,2.6,2.6,0,0,0-.56-.07,2.51,2.51,0,0,0-.55.07A3.05,3.05,0,0,0,86,45a3,3,0,0,0-.48.3,2.81,2.81,0,0,0-.44.35,3,3,0,0,0-.35.43,2.62,2.62,0,0,0-.26.5,3.08,3.08,0,0,0-.16.54,3.18,3.18,0,0,0-.07.55,3.43,3.43,0,0,0,.08.56,3.27,3.27,0,0,0,.17.53,3,3,0,0,0,.24.51,2.42,2.42,0,0,0,.36.42,2.51,2.51,0,0,0,.44.35,3.76,3.76,0,0,0,.47.3,3.41,3.41,0,0,0,1.09.19,2.51,2.51,0,0,0,.55-.06,3.05,3.05,0,0,0,.54-.14,2.6,2.6,0,0,0,.49-.28,3,3,0,0,0,.44-.34,2.85,2.85,0,0,0,.31-.46,2.39,2.39,0,0,0,.28-.49,3,3,0,0,0,.18-.53,3.43,3.43,0,0,0,.06-.56,2.6,2.6,0,0,0-.06-.56,2.5,2.5,0,0,0-.19-.52"/><path class="cls-3" d="M104.64,73.57c0,.19,0,.38,0,.57s0,.39,0,.58,0,.39,0,.58,0,.38,0,.57,0,.39-.06.57-.08.38-.11.57,0,.39-.08.57-.12.37-.16.56-.11.37-.16.55-.08.38-.14.56-.14.36-.21.54-.16.35-.24.52-.13.37-.22.54-.22.32-.32.48-.17.34-.28.5l-.3.49-.34.47-.34.45-.33.47c-.12.15-.27.28-.39.43l-.36.44c-.13.14-.24.3-.37.44s-.28.26-.42.39-.27.27-.41.4-.28.27-.42.39l-.45.35c-.15.12-.27.28-.43.39s-.32.21-.48.31l-.47.32-.5.29-.5.28c-.17.09-.35.15-.53.24s-.35.14-.52.22-.33.2-.51.27-.36.13-.55.19l-.53.2c-.18.06-.38.07-.57.12s-.34.16-.53.21-.38.06-.57.11-.36.13-.54.18l-.57.11-.55.13c-.19,0-.39,0-.58.07s-.37,0-.57.08-.37.09-.56.11-.37,0-.57.07-.37.08-.56.11l-.57,0-.58.06-.56.08-.57,0c-.19,0-.39,0-.58,0l-.57.06-.57,0-.57.06-.58,0c-.19,0-.37,0-.57.07s-.38,0-.57,0-.38.07-.57.08-.38,0-.57,0h-.58l-.57,0-.57,0c-.19,0-.39,0-.58,0s-.38,0-.57,0h-.57l-.58,0-.57,0h-.58c-.19,0-.38,0-.57,0h-.57c-.19,0-.38,0-.58,0h-.57c-.19,0-.38,0-.57,0s-.38,0-.58,0-.38,0-.57,0-.38,0-.57,0l-.58,0c-.19,0-.38,0-.57,0l-.57,0h-.58l-.57,0-.57,0h-.58c-.19,0-.38,0-.57,0h-.58c-.19,0-.38.06-.57.06s-.38,0-.57,0h-.58c-.19,0-.38,0-.57,0s-.38,0-.57,0-.38,0-.58,0-.38,0-.57,0-.38.06-.57.06-.38,0-.57,0-.39,0-.58,0l-.57,0c-.19,0-.38,0-.57,0H55.75c-.19,0-.38,0-.57,0s-.38,0-.57,0H54l-.57,0h-.37c-.19,0-.38,0-.57,0H49.07c-.19,0-.38,0-.57,0l-.57,0h-.58c-.19,0-.38.05-.57.05s-.39,0-.58,0-.38,0-.57,0-.38,0-.57,0-.39-.06-.58-.06h-.57c-.2,0-.38,0-.58,0s-.38,0-.57,0-.38,0-.58,0H41l-.57,0-.57,0H38.74c-.19,0-.39,0-.57,0s-.38,0-.58,0-.38,0-.57,0h-.57c-.2,0-.39,0-.58,0l-.57,0-.58,0-.57,0h-.58l-.57,0c-.19,0-.38,0-.57,0s-.39,0-.58,0-.38,0-.57,0-.38,0-.57,0-.39-.06-.58-.07-.38,0-.57,0l-.58,0c-.19,0-.38,0-.57,0l-.57-.05c-.2,0-.39,0-.58,0s-.38-.06-.57-.07-.38,0-.57,0-.38,0-.58-.06L25,91.22c-.19,0-.38,0-.57,0l-.57,0-.58,0-.57-.05c-.19,0-.38-.08-.57-.1l-.57,0c-.19,0-.38,0-.57,0s-.39,0-.58,0-.37-.08-.56-.1-.39,0-.57-.06l-.57-.11-.57-.09c-.19,0-.38,0-.57-.06s-.37-.09-.56-.13-.38,0-.57-.08-.37-.12-.55-.16L15.3,90l-.55-.15-.56-.16-.54-.16c-.19-.06-.38-.09-.56-.15s-.35-.17-.52-.24L12,89c-.18-.08-.37-.13-.54-.2L11,88.5c-.17-.08-.35-.16-.51-.25s-.32-.22-.49-.32-.34-.17-.5-.27-.34-.19-.49-.3-.28-.27-.43-.38-.32-.21-.47-.33-.32-.23-.46-.35l-.41-.4c-.14-.13-.29-.25-.43-.39s-.24-.3-.37-.43-.24-.3-.37-.45l-.38-.42c-.12-.15-.25-.29-.37-.45s-.25-.28-.37-.43-.19-.33-.31-.49-.25-.28-.37-.45-.18-.32-.29-.49-.24-.3-.34-.46-.19-.33-.29-.5-.22-.31-.31-.48-.18-.34-.27-.51-.14-.36-.22-.54-.16-.34-.23-.52-.15-.36-.21-.54S2,78,1.94,77.79s-.08-.38-.13-.56-.1-.37-.14-.57,0-.37-.08-.57l-.09-.57c0-.19,0-.38-.07-.57s-.05-.38-.06-.57,0-.39,0-.58,0-.38,0-.57,0-.39,0-.58v-.58c0-.19-.05-.38,0-.58l0-.57c0-.19.08-.38.09-.57s0-.39,0-.58,0-.39,0-.58.08-.38.11-.57,0-.39,0-.58,0-.38.08-.57.11-.37.14-.56.07-.38.1-.57,0-.39.05-.58.08-.37.12-.56.11-.37.15-.56,0-.39.07-.57.14-.37.18-.55,0-.39.07-.58.13-.37.17-.55l.15-.56c0-.19.09-.37.14-.56s.08-.38.13-.56.13-.36.19-.55.09-.37.14-.56.1-.37.16-.55l.15-.56c.06-.18.14-.36.2-.54s.1-.37.16-.56.11-.36.17-.55.1-.37.16-.55.16-.35.23-.53.11-.36.18-.54.11-.37.18-.55.16-.35.22-.53.08-.38.15-.56.14-.36.2-.54.17-.34.24-.52.12-.37.18-.55l.2-.54.21-.53c.08-.18.19-.34.26-.52s.11-.37.18-.55.17-.34.25-.52.16-.35.23-.53.14-.35.22-.53.17-.34.25-.52.13-.36.21-.53l.23-.53c.08-.17.13-.36.21-.53s.2-.33.28-.51L9,45.11c.09-.17.12-.37.2-.54s.19-.34.27-.51.16-.35.24-.52.19-.34.27-.51.19-.34.27-.51.13-.37.22-.54.22-.31.31-.48l.26-.52.27-.5c.09-.17.13-.37.23-.53s.2-.33.29-.5.18-.34.28-.5.2-.33.3-.5l.28-.5c.09-.17.14-.36.23-.52s.21-.33.31-.49.21-.32.31-.49.18-.34.27-.5.22-.32.32-.48a5.72,5.72,0,0,1,.32-.48c.1-.17.18-.34.29-.5l.32-.47.3-.48c.11-.16.22-.3.33-.47s.19-.33.29-.49.22-.31.32-.47.2-.32.31-.48.22-.3.33-.46.18-.33.29-.49.22-.31.33-.47.24-.29.35-.45.2-.32.31-.48.18-.33.29-.48.25-.29.36-.45.2-.32.31-.48.21-.31.33-.47.24-.28.35-.44.21-.32.32-.47.2-.33.31-.48.24-.29.35-.45.2-.32.32-.47.23-.3.34-.46.27-.27.38-.42.2-.33.31-.48.25-.29.36-.45.21-.32.33-.46.22-.31.34-.46.25-.28.37-.43.25-.28.37-.43.21-.32.33-.47.26-.28.38-.43.21-.32.33-.46.25-.28.38-.43.25-.28.37-.43.21-.32.33-.46l.39-.43c.11-.14.26-.27.39-.41l.36-.44c.13-.14.24-.29.37-.43l.38-.43c.12-.14.27-.26.4-.41l.39-.41c.13-.14.24-.29.37-.43s.25-.29.37-.43l.4-.41c.13-.14.25-.28.39-.42s.28-.25.41-.39.28-.25.42-.39.25-.29.38-.42.3-.24.43-.37.25-.29.39-.42.28-.26.42-.39.26-.28.39-.41.3-.24.44-.37l.41-.39c.14-.12.31-.22.45-.35l.43-.38c.14-.12.27-.27.41-.39s.3-.23.44-.36l.45-.35.45-.36c.14-.12.31-.21.46-.32s.28-.27.43-.38L38,7.38l.46-.33.46-.34.48-.3.48-.32c.16-.1.3-.23.46-.33s.34-.17.5-.28.31-.23.47-.32l.49-.29c.17-.1.34-.17.51-.26s.34-.17.5-.26.33-.21.49-.3l.52-.24.51-.24.52-.23.53-.21.52-.24.53-.2c.18-.07.37-.1.55-.16s.35-.16.53-.22L48,2.18c.19-.05.36-.14.54-.18l.56-.14.55-.12.56-.11c.19,0,.38,0,.57-.08l.56-.08c.19,0,.38,0,.57-.06l.57,0,.56,0c.19,0,.38-.05.57-.05h.05c.19,0,.38,0,.57,0s.37.08.57.09.38,0,.56,0l.57.06.56.09c.19,0,.37.09.56.13s.38.05.56.09l.56.13.54.16.54.19.54.2.53.2.52.22.52.24c.17.08.35.15.52.24s.36.13.53.22l.5.25c.17.09.32.22.49.31l.49.28c.17.1.35.16.51.26l.49.29.48.32c.16.1.29.24.45.35s.34.17.49.28l.47.33.46.34c.15.11.28.25.43.37s.32.21.47.32l.44.37c.15.11.29.25.43.37s.28.26.43.38.31.22.45.35.27.27.41.4.32.21.46.33.25.29.39.42l.42.39.41.4.43.37c.13.13.29.24.43.38s.24.29.38.42.24.3.37.43.3.24.43.38.24.3.37.44.29.25.42.39.25.28.38.42.27.27.39.41.23.31.36.45.27.26.4.41.22.3.35.45l.36.43c.13.15.29.26.41.4l.35.46c.12.14.26.27.38.42l.36.44c.12.15.21.32.33.47s.27.27.38.42l.36.44c.12.15.2.33.32.48s.24.3.35.45.25.28.37.43.2.33.31.48l.35.46c.11.15.23.29.35.44s.25.29.36.44.19.33.3.48.22.32.34.47.26.27.38.43.18.34.29.49l.33.46c.11.16.23.31.33.47l.33.46c.1.16.22.32.32.47s.2.33.31.49.25.28.35.44.23.31.33.47.17.34.28.5.24.3.34.45.19.34.29.49l.32.47.31.48.32.47c.11.16.19.34.29.49s.22.31.33.47.22.31.32.47.18.35.28.5.22.31.32.47l.31.48c.1.17.21.32.31.48s.18.34.28.49.13.2.26.4.1.21.22.41.24.3.34.46l.29.51c.1.16.18.33.28.5s.19.34.28.5l.3.5c.1.17.22.31.32.48s.17.34.27.51l.27.52c.09.16.22.31.32.48s.15.35.24.53.2.32.29.49.17.35.26.52l.29.5c.09.17.15.35.25.52s.19.33.28.5.17.35.26.52.16.35.25.52.18.34.26.51l.26.52c.09.17.15.35.24.53s.2.33.28.5.14.36.22.54.2.33.28.5.18.34.26.52.13.36.21.54.15.35.23.53.19.33.27.51l.24.52c.08.18.14.36.22.54l.21.54c.08.17.19.34.27.51s.13.36.21.54.18.34.26.52.13.36.21.54.11.36.18.54.16.35.23.53.16.35.23.53l.21.54.2.54c.07.19.12.37.19.55s.17.34.24.53.07.38.14.56.15.35.21.54.16.35.22.53.11.37.17.55l.18.55.19.54.18.55c.06.19.09.38.15.56s.14.36.19.54.1.38.15.56.11.37.16.55l.15.56c0,.19.12.37.17.55s.11.37.16.56.09.37.13.56,0,.38.09.57.11.37.15.56,0,.38.1.57.13.36.16.55l.12.56c0,.2,0,.39.07.58s.09.37.13.56,0,.39,0,.58.1.37.13.56,0,.39,0,.58a5.46,5.46,0,0,1,0,.57c0,.2.08.39.1.57s0,.39,0,.58.07.38.08.57,0,.39,0,.58,0,.39,0,.58m1.32.14c0-.19,0-.38,0-.57s0-.39,0-.58-.06-.38-.07-.58,0-.38,0-.57,0-.39,0-.58,0-.38-.07-.57-.06-.38-.08-.57-.07-.38-.1-.57,0-.39-.06-.58-.09-.37-.13-.56,0-.38-.08-.57-.09-.38-.13-.57,0-.38-.08-.56-.05-.39-.09-.58-.13-.36-.17-.55-.09-.37-.13-.56-.08-.38-.13-.56-.09-.38-.14-.56-.08-.38-.13-.57-.14-.36-.19-.54,0-.38-.11-.57l-.16-.55-.18-.55c0-.19-.14-.36-.2-.54s-.08-.38-.14-.56-.1-.37-.16-.56l-.19-.54-.18-.55c-.06-.18-.16-.35-.22-.53s-.14-.36-.2-.54-.1-.37-.16-.55-.16-.35-.22-.53-.12-.36-.18-.54-.16-.35-.23-.52-.13-.36-.19-.54l-.2-.54c-.07-.18-.13-.36-.2-.53s-.16-.35-.23-.53l-.22-.52c-.07-.18-.12-.36-.2-.54s-.17-.34-.24-.52-.14-.35-.22-.52-.14-.35-.22-.53-.13-.36-.2-.53-.17-.35-.24-.52-.19-.34-.27-.51-.13-.36-.21-.53-.16-.35-.24-.52-.17-.34-.26-.51-.12-.36-.2-.54l-.25-.51c-.09-.17-.19-.33-.27-.5s-.17-.34-.26-.52-.12-.36-.2-.53-.18-.34-.26-.51-.18-.34-.26-.51-.2-.32-.29-.49-.14-.36-.22-.53-.22-.32-.31-.48-.16-.35-.25-.52-.17-.34-.26-.5-.15-.36-.24-.53-.21-.31-.3-.48-.16-.35-.25-.51-.22-.32-.3-.49-.18-.34-.27-.51-.17-.34-.27-.5-.21-.32-.3-.48-.17-.35-.26-.51-.21-.33-.3-.49l-.3-.49-.29-.49-.29-.49c-.1-.17-.22-.32-.32-.48s-.14-.18-.26-.38l-.26-.4L90.77,33c-.1-.15-.17-.33-.28-.49s-.19-.32-.3-.48-.23-.3-.33-.46-.18-.33-.28-.5-.21-.3-.31-.46-.18-.34-.28-.5-.25-.29-.35-.45l-.31-.47c-.1-.16-.18-.33-.28-.49s-.22-.31-.32-.47-.18-.34-.28-.49-.24-.3-.34-.46-.18-.33-.29-.48-.24-.29-.35-.45l-.31-.47c-.11-.16-.23-.3-.34-.46s-.17-.34-.28-.49-.24-.29-.35-.45S85,24.14,84.9,24s-.25-.28-.36-.43-.21-.32-.32-.47l-.32-.46c-.11-.16-.24-.3-.35-.45s-.21-.32-.32-.47-.21-.32-.32-.47-.25-.28-.36-.43-.24-.3-.35-.45l-.33-.46c-.12-.15-.26-.28-.37-.43s-.2-.32-.32-.47l-.36-.44c-.11-.15-.24-.28-.36-.43s-.23-.3-.35-.44-.22-.32-.33-.46-.26-.28-.38-.43-.23-.29-.36-.44-.22-.3-.34-.44l-.37-.44L78,15c-.12-.14-.26-.27-.39-.4s-.21-.32-.34-.46l-.38-.42c-.12-.14-.26-.27-.39-.41s-.27-.28-.4-.42l-.4-.41c-.13-.14-.24-.31-.36-.45l-.4-.42c-.14-.14-.29-.25-.43-.39l-.39-.42-.43-.39c-.13-.14-.26-.28-.4-.41s-.26-.29-.4-.42l-.42-.4c-.14-.13-.28-.27-.42-.39l-.44-.38c-.14-.13-.31-.24-.45-.36l-.43-.39c-.15-.12-.29-.26-.43-.38S70,7.09,69.8,7l-.45-.36c-.15-.12-.29-.25-.44-.36S68.6,6,68.44,5.9s-.31-.23-.47-.34-.3-.25-.45-.36-.3-.24-.46-.35-.34-.19-.49-.3-.31-.23-.48-.33l-.48-.31c-.17-.1-.32-.22-.48-.32s-.35-.17-.52-.27L64.12,3l-.52-.25-.51-.27c-.17-.08-.32-.21-.5-.3s-.36-.12-.53-.2l-.53-.25L61,1.51l-.54-.22-.54-.19C59.75,1,59.54,1,59.37,1S59,.8,58.83.75L58.27.61c-.19,0-.39,0-.57-.1s-.37-.13-.56-.16-.39,0-.57-.07L56,.18,55.42.12c-.19,0-.37-.06-.57-.07s-.38,0-.57,0h-.63c-.19,0-.38,0-.57,0l-.57,0c-.19,0-.38,0-.57,0a5.39,5.39,0,0,0-.56.08l-.57.08-.57.09-.56.07-.56.1c-.19,0-.37.11-.55.16A5.07,5.07,0,0,0,48,.8c-.18,0-.36.13-.54.18s-.37.09-.55.15-.36.14-.54.2-.36.11-.54.17l-.54.21c-.17.07-.33.17-.51.25s-.37.11-.54.19-.33.2-.5.28l-.53.22c-.17.09-.33.19-.5.27l-.5.28-.49.28c-.17.09-.37.14-.53.23s-.31.23-.47.33l-.5.29-.49.28-.47.33c-.16.1-.31.22-.47.33l-.47.32c-.15.11-.32.2-.48.31l-.46.33c-.16.11-.3.24-.45.35s-.32.21-.48.32L36,7.27c-.16.12-.29.26-.43.38L35.14,8l-.43.37-.43.38c-.15.12-.3.23-.45.36l-.43.37c-.14.13-.3.23-.44.36l-.41.4c-.14.13-.3.24-.44.37l-.42.39-.41.39c-.14.13-.27.28-.4.41s-.26.27-.4.41-.26.28-.39.41-.28.26-.41.4-.27.27-.4.41l-.38.43c-.13.14-.28.26-.41.4s-.24.29-.37.43-.28.27-.4.41-.25.29-.38.43-.27.26-.4.4-.26.28-.38.43-.24.29-.37.44-.25.28-.37.43-.23.31-.36.45-.28.25-.4.4-.24.3-.36.45-.25.28-.37.43-.22.31-.34.46-.26.27-.39.42l-.36.44c-.12.15-.21.32-.33.47l-.35.45c-.12.15-.26.28-.38.43s-.21.32-.32.47-.22.31-.33.46l-.35.46c-.12.15-.27.27-.39.43l-.33.46c-.11.15-.19.33-.31.48s-.24.29-.35.45l-.33.47c-.11.15-.24.29-.35.45s-.19.33-.31.48-.24.29-.36.45-.2.32-.31.47-.25.29-.36.45-.2.32-.31.48-.22.31-.32.47l-.33.47c-.1.16-.2.32-.31.48L16.2,30l-.34.47-.29.49c-.1.16-.25.29-.36.45s-.19.33-.3.48-.22.31-.32.47-.17.35-.27.51-.23.31-.33.46l-.3.49-.31.48c-.1.16-.23.31-.33.47s-.2.32-.3.49l-.29.5c-.09.16-.17.33-.27.5l-.28.5c-.09.17-.23.3-.33.47s-.13.36-.23.53-.23.31-.32.48l-.28.5c-.09.17-.16.34-.25.52s-.16.34-.25.51-.2.33-.29.5-.14.35-.23.52l-.26.52c-.08.17-.2.32-.29.49S9,42.13,9,42.3l-.24.52c-.08.17-.2.32-.29.5s-.17.33-.26.51-.15.35-.23.52-.18.34-.25.52-.15.35-.23.52-.18.34-.25.52-.14.36-.22.53-.16.35-.23.52-.14.36-.21.54-.18.34-.26.51-.12.37-.19.54-.2.34-.27.51-.14.36-.22.53-.12.36-.19.54-.13.37-.2.54S5.06,51,5,51.2s-.18.34-.25.52l-.21.54-.18.54c-.07.18-.1.37-.16.55L4,53.89c-.06.18-.13.36-.2.54s-.13.35-.19.53-.15.36-.21.54-.12.36-.19.54-.1.37-.15.55-.13.36-.19.55-.11.36-.17.54l-.18.55c0,.18-.08.37-.14.56s-.12.36-.18.54-.13.36-.19.54-.08.38-.13.56L1.71,61c-.05.19-.06.38-.11.57s-.09.37-.13.55-.13.37-.18.55-.07.38-.11.56-.09.37-.13.56-.09.37-.12.56-.07.38-.1.57-.07.37-.11.56S.64,65.83.6,66s-.07.38-.1.57a5.25,5.25,0,0,0,0,.57c0,.18,0,.38-.08.57s-.07.37-.1.56,0,.38-.05.57,0,.38-.06.58,0,.37,0,.56-.07.38-.08.57,0,.39,0,.58,0,.38,0,.57,0,.38,0,.57,0,.39,0,.58,0,.38,0,.57,0,.38,0,.57,0,.38,0,.57l0,.58c0,.19,0,.38.05.57s.09.37.12.56l.09.57c0,.19.08.37.13.56s.06.38.11.56.13.36.18.54.09.38.15.56.14.36.2.54.16.35.23.52.15.36.23.53.21.32.3.49a5,5,0,0,0,.32.48c.1.17.19.34.29.5s.19.34.29.5.26.29.38.45.19.34.3.49.26.3.37.46l.36.45.36.45.37.45.39.43c.13.14.25.29.39.43s.28.27.42.41.28.27.42.39.29.25.44.38l.45.36c.15.12.28.28.43.39l.49.32.5.3c.16.1.31.23.48.33s.34.17.52.26l.52.26.53.23c.17.08.34.18.52.25l.55.21.54.22.55.19c.18,0,.38,0,.57.11l.55.18.56.16.57.13c.18,0,.38,0,.57.09s.37.12.56.16.37.08.56.12.38,0,.57.06l.57.07.57.1c.19,0,.37.08.56.1s.38,0,.57,0,.38.07.57.09.37.07.57.09l.57,0,.57,0,.57.06.57.06c.19,0,.38,0,.58,0l.57,0,.57,0c.19,0,.38,0,.57,0l.57,0,.58,0,.57,0c.19,0,.38,0,.57,0s.38,0,.58,0,.37,0,.57,0,.38,0,.57,0l.57,0c.19,0,.38,0,.58,0s.38,0,.57,0h.57c.19,0,.38,0,.58,0l.57,0c.19,0,.38,0,.57,0s.38,0,.58,0,.38,0,.57,0,.38-.05.57-.05.38,0,.57,0h.58c.19,0,.38,0,.57,0s.38,0,.57,0,.38,0,.58,0l.57,0,.57,0h.58l.57,0h.58c.18,0,.37.06.57.06s.38-.06.57-.06.38,0,.57,0l.58,0c.19,0,.38,0,.57,0h1.14c.2,0,.39,0,.58,0l.57,0h1.72l.57,0c.2,0,.39,0,.58,0s.38-.06.57-.06.38,0,.58,0,.38,0,.57,0l.57,0,.58,0h.57c.19,0,.38,0,.57,0s.19,0,.38,0v0c.2,0,.39,0,.58,0s.38,0,.57,0,.38,0,.57,0h.58l.57,0h.57c.19,0,.38,0,.57,0l.57,0h.58c.19,0,.38-.05.57-.05s.38,0,.57,0h.57c.2,0,.39,0,.58,0s.38,0,.57,0l.57,0,.58,0,.57,0h.57c.19,0,.38,0,.57,0l.57,0h.57c.19,0,.39,0,.57,0s.39,0,.58,0,.38,0,.57-.06h.57c.19,0,.38,0,.57,0h.57c.19,0,.38,0,.57,0s.39,0,.57,0,.39,0,.58,0l.57,0h.57c.19,0,.38,0,.57,0h.57l.57,0c.19,0,.38,0,.57,0s.39,0,.58,0l.57,0,.57,0c.19,0,.38,0,.57,0h.57c.19,0,.38-.06.57-.07s.39,0,.58,0l.56,0c.2,0,.39-.06.58-.06s.38,0,.57,0l.57,0c.19,0,.38-.05.57-.07s.38,0,.57,0l.57,0,.57,0c.19,0,.38,0,.57-.07s.38,0,.57,0l.57,0c.19,0,.38-.07.57-.09l.57-.07L86,92l.57,0c.2,0,.39,0,.57,0s.38-.09.56-.12.39,0,.57,0l.57-.11.56-.07.57-.09.56-.1.56-.14.54-.13c.19,0,.38,0,.56-.1s.35-.14.53-.19.38,0,.56-.11.35-.12.53-.18.36-.11.54-.18.33-.17.51-.24.36-.1.53-.17l.52-.22.51-.24c.17-.09.31-.22.48-.31s.35-.14.51-.23.3-.24.45-.34.34-.17.5-.28.3-.23.45-.34.31-.21.45-.33.27-.26.42-.38l.42-.37.39-.4c.14-.13.31-.23.44-.37l.37-.43c.12-.13.26-.26.38-.41s.22-.3.34-.45.2-.31.32-.46.24-.29.35-.44.21-.31.32-.47.2-.31.31-.47l.32-.45c.1-.16.2-.32.31-.48s.17-.34.27-.51.2-.33.28-.51.17-.34.24-.51.14-.36.21-.54.1-.37.17-.56.15-.35.21-.54.07-.37.11-.56.06-.38.1-.57.12-.37.15-.56,0-.38,0-.57,0-.38.07-.58.06-.38.07-.57,0-.38,0-.58.06-.38.06-.57,0-.38,0-.58"/><path class="cls-3" d="M80.15,74.31a.86.86,0,0,0-.32.46.69.69,0,0,0,0,.54,1.56,1.56,0,0,0,.25.5,3.46,3.46,0,0,0,.46.35,4.13,4.13,0,0,0,.46.32c.17.08.34.17.52.24a5.52,5.52,0,0,0,.54.16,3.66,3.66,0,0,0,.57.05,5.81,5.81,0,0,0,.59,0,6,6,0,0,0,.6,0,5.58,5.58,0,0,0,.59-.1,3,3,0,0,0,.55-.24,2.26,2.26,0,0,0,.52-.3,2.14,2.14,0,0,0,.4-.44,2.62,2.62,0,0,0,.33-.49,3.5,3.5,0,0,0,.23-.55,3.1,3.1,0,0,0,.13-.58,2.71,2.71,0,0,0,0-.57,3.44,3.44,0,0,0-.09-.56,2.57,2.57,0,0,0-.16-.54,4.08,4.08,0,0,0-.29-.5c-.1-.16-.23-.29-.35-.45s-.22-.31-.35-.45-.28-.26-.41-.4l-.39-.41-.42-.39-.43-.38-.41-.4c-.14-.13-.27-.28-.39-.41a4.86,4.86,0,0,1-.39-.42,2.24,2.24,0,0,1-.26-.51,1.3,1.3,0,0,1-.1-.54.62.62,0,0,1,.29-.46,1.34,1.34,0,0,1,.52-.19,2.64,2.64,0,0,1,.55,0,4.63,4.63,0,0,1,.55.06,2.57,2.57,0,0,1,.52.2,1.06,1.06,0,0,0,.53.13,1.17,1.17,0,0,0,.52-.16.88.88,0,0,0,.37-.37,1,1,0,0,0,.12-.56,1,1,0,0,0-.2-.55,1.67,1.67,0,0,0-.42-.42,3.63,3.63,0,0,0-.56-.23,3.93,3.93,0,0,0-.55-.2c-.19,0-.38-.06-.59-.09s-.39,0-.59-.06a4.91,4.91,0,0,0-.55,0,3,3,0,0,0-.54.1,3.86,3.86,0,0,0-.51.2,2.81,2.81,0,0,0-.5.22,3.65,3.65,0,0,0-.43.35,2.78,2.78,0,0,0-.36.41,2.39,2.39,0,0,0-.31.45,3.05,3.05,0,0,0-.17.51,2.5,2.5,0,0,0-.07.54,2.11,2.11,0,0,0,.06.55,2.73,2.73,0,0,0,.13.53c.07.17.18.33.27.5s.15.35.25.51.23.31.35.46.28.26.41.41.23.29.37.43.27.27.41.4l.41.4c.14.13.29.25.42.38l.41.39c.15.15.24.32.36.46a5,5,0,0,1,.39.42,2.15,2.15,0,0,1,.21.54,1,1,0,0,1-.1.56,1.08,1.08,0,0,1-.29.47.82.82,0,0,1-.52.18,1.86,1.86,0,0,1-.55-.09c-.17,0-.34-.16-.51-.23l-.53-.16a2.89,2.89,0,0,0-.53-.16,1.79,1.79,0,0,0-.55-.08,1,1,0,0,0-.52.2m-5.8.1a1.1,1.1,0,0,0,.58-.12,1.23,1.23,0,0,0,.44-.38,2.48,2.48,0,0,0,.37-.46,4.74,4.74,0,0,0,.17-.57,5.32,5.32,0,0,0,.16-.57c.05-.19.09-.39.12-.58l.09-.59c0-.2,0-.4,0-.59s0-.38,0-.59,0-.38,0-.58a3.76,3.76,0,0,0,0-.58,4.76,4.76,0,0,0-.13-.57,3.17,3.17,0,0,0-.14-.57,2.06,2.06,0,0,0-.27-.51,1.66,1.66,0,0,0-.36-.45,1.28,1.28,0,0,0-.53-.24.93.93,0,0,0-.59.12,1.67,1.67,0,0,0-.42.42,2.33,2.33,0,0,0-.32.51,4.53,4.53,0,0,0-.27.54c-.06.19-.11.39-.16.59s-.06.4-.1.59-.1.41-.12.6,0,.42,0,.6,0,.38,0,.58,0,.38,0,.58,0,.38.05.57a5.4,5.4,0,0,0,.08.58,4.42,4.42,0,0,0,.14.55,2.46,2.46,0,0,0,.27.51,1.57,1.57,0,0,0,.39.42,1.13,1.13,0,0,0,.54.19m-.25,2.51a2.12,2.12,0,0,1-.57-.07,2.44,2.44,0,0,1-.56-.17,3.72,3.72,0,0,1-.47-.34,3.08,3.08,0,0,1-.44-.37,4.14,4.14,0,0,1-.34-.48c-.1-.16-.18-.33-.27-.51s-.19-.33-.27-.52-.13-.36-.18-.55-.09-.37-.14-.57,0-.38-.09-.57,0-.38,0-.58-.09-.38-.1-.57,0-.39,0-.58,0-.39,0-.58,0-.39.06-.57,0-.39.06-.57a5.21,5.21,0,0,1,.1-.57c0-.19.06-.38.11-.56s.15-.36.21-.54.12-.37.2-.54.15-.36.23-.52a5.72,5.72,0,0,1,.32-.48,4.33,4.33,0,0,1,.33-.47,4,4,0,0,1,.38-.43,3.81,3.81,0,0,1,.42-.39,4.3,4.3,0,0,1,.49-.3,3.63,3.63,0,0,1,.51-.28,4.59,4.59,0,0,1,1.13-.13,2.2,2.2,0,0,1,.58.06,2.14,2.14,0,0,1,.53.25,2.56,2.56,0,0,1,.48.33,5.57,5.57,0,0,1,.39.43,3.45,3.45,0,0,1,.32.49,5,5,0,0,1,.26.52c.07.17.09.37.15.56s.16.36.2.55.07.38.1.58,0,.38,0,.58.07.38.08.57,0,.39,0,.59,0,.38,0,.58,0,.39-.06.58,0,.39,0,.58,0,.39-.08.57-.11.38-.15.56-.09.38-.14.56a4.58,4.58,0,0,1-.14.56c-.06.19-.17.36-.24.53s-.18.35-.27.51-.18.35-.28.51a5.37,5.37,0,0,1-.37.44,5.54,5.54,0,0,1-.37.45,3.73,3.73,0,0,1-.46.35,3.65,3.65,0,0,1-.53.25,2.62,2.62,0,0,1-.53.2,2.87,2.87,0,0,1-.58.07M70,65.74a1.1,1.1,0,0,0-.08-.55,1,1,0,0,0-.34-.41,2,2,0,0,0-.46-.34,3.92,3.92,0,0,0-.54-.12A3.37,3.37,0,0,0,68,64.2a4.86,4.86,0,0,0-.55-.07l-.56,0c-.19,0-.38,0-.56,0l-.56,0c-.19,0-.38,0-.55,0l-.55,0c-.19,0-.37.09-.54.12s-.38.05-.54.09a5.19,5.19,0,0,0-.52.19,3,3,0,0,0-.51.2,2,2,0,0,0-.45.31,1.16,1.16,0,0,0-.29.47,1.37,1.37,0,0,0,0,.54.78.78,0,0,0,.19.49.9.9,0,0,0,.48.26,2.33,2.33,0,0,0,.55,0c.17,0,.35,0,.54-.06l.55,0c.48-.07.55,0,.51.49,0,.18,0,.37,0,.58s0,.38,0,.58,0,.38,0,.58,0,.38,0,.58,0,.38,0,.58,0,.38,0,.58,0,.38,0,.58,0,.39,0,.58,0,.39,0,.58,0,.39,0,.58,0,.39,0,.58,0,.4,0,.58a5.51,5.51,0,0,0,0,.58,3.22,3.22,0,0,0,.1.57,4,4,0,0,0,.16.55,2.42,2.42,0,0,0,.26.51,1.68,1.68,0,0,0,.4.4,1,1,0,0,0,.56.16.93.93,0,0,0,.51-.26,1.46,1.46,0,0,0,.38-.43,2.44,2.44,0,0,0,.19-.54,3,3,0,0,0,.11-.57,3.74,3.74,0,0,0,0-.58c0-.19,0-.38,0-.58s0-.39,0-.58,0-.39,0-.58,0-.39,0-.59l0-.58c0-.19,0-.39,0-.58a5.61,5.61,0,0,1,0-.58c0-.2,0-.4,0-.59s0-.39,0-.58,0-.39,0-.58,0-.39,0-.58.07-.4.09-.58,0-.4,0-.58c.08-.49.12-.56.62-.54l.54,0,.54,0a1.69,1.69,0,0,0,.53-.08.82.82,0,0,0,.42-.31,1.37,1.37,0,0,0,.22-.5m-9.59.18a1.64,1.64,0,0,0,0-.54,1.72,1.72,0,0,0-.16-.5,1.51,1.51,0,0,0-.27-.46,1,1,0,0,0-.49-.21,1.32,1.32,0,0,0-.53,0,1,1,0,0,0-.53.24,1.42,1.42,0,0,0-.36.46,3.2,3.2,0,0,0-.19.55c0,.17-.07.94-.09,1.14s-.05.38-.06.58,0,.38,0,.58,0,.39,0,.58,0,1.38,0,1.57v.58c0,.2,0,.39,0,.58s0,.4,0,.59,0,.39,0,.58,0,.39,0,.58,0,.4.06.58a3.62,3.62,0,0,1,0,.48,4.63,4.63,0,0,0,0,.54c0,.19,0,.37,0,.54a4,4,0,0,0,.06.54A3.39,3.39,0,0,0,58,76a1.79,1.79,0,0,0,.23.48,1.12,1.12,0,0,0,.4.36,1,1,0,0,0,.52.11.79.79,0,0,0,.53-.1.92.92,0,0,0,.35-.42,2.26,2.26,0,0,0,.2-.52,4.34,4.34,0,0,0,.07-.55c0-.18.08-.36.09-.57s0-.38,0-.58,0-.57,0-.77,0-.38,0-.58-.06-.37-.08-.57,0-.38,0-.57,0-.38,0-.58,0-.38,0-.56,0-.39,0-.57,0-.39,0-.57.05-.53.05-.71a5.53,5.53,0,0,1,0-.56,4.73,4.73,0,0,1,0-.56c0-.21,0-.4,0-.57s0-.94,0-1.11m-9.92,1.49c0,.28,0,.28,0,.55s-.06.28,0,.56,0,.28,0,.55a3.49,3.49,0,0,1,0,.56c0,.6.24.6.56.58a3.92,3.92,0,0,0,.53-.09,2.51,2.51,0,0,0,.52-.14,2.21,2.21,0,0,0,.5-.21,1.4,1.4,0,0,0,.41-.36,1.5,1.5,0,0,0,.2-.5,2.11,2.11,0,0,0,.08-.53,1.31,1.31,0,0,0-.16-.58,1.2,1.2,0,0,0-.37-.46,2.17,2.17,0,0,0-.51-.31,4.56,4.56,0,0,0-.59-.14,4.32,4.32,0,0,0-.61,0c-.5,0-.59.26-.59.54m3.9,4.71a3,3,0,0,1,.26.54,4.15,4.15,0,0,1,.23.55,5,5,0,0,1,.12.58c0,.19.11.38.14.59s0,.39,0,.6a2.47,2.47,0,0,1,0,.55,2.13,2.13,0,0,1-.16.54,1.81,1.81,0,0,1-.3.47,1.11,1.11,0,0,1-.47.3.75.75,0,0,1-.55,0,.93.93,0,0,1-.4-.39A1.81,1.81,0,0,1,53,76a4.31,4.31,0,0,1,0-.55,4.49,4.49,0,0,0-.05-.55c0-.19,0-.38,0-.55a4.54,4.54,0,0,0-.17-.52,3.08,3.08,0,0,0-.45-1c-.21-.28-.27-.35-.89-.3-.15,0-.32,0-.49,0-.5.06-.52.24-.52.57,0,.17,0,.36,0,.57s0,.37,0,.57,0,.38,0,.56,0,.39,0,.57,0,.3,0,.46a1.38,1.38,0,0,1-.09.6,1,1,0,0,1-.37.48,1,1,0,0,1-.6.12,1.06,1.06,0,0,1-.57-.17,1.23,1.23,0,0,1-.41-.46,1.62,1.62,0,0,1-.12-.61c0-.16,0-.25,0-.46s0-.37,0-.57,0-.37,0-.57,0-.37,0-.57,0-.38,0-.57.05-.38.05-.57V71.9c0-.19-.05-.38-.05-.57s0-.38,0-.57v-.57c0-.19,0-.38,0-.57v-.57c0-.19,0-.38,0-.57s0-.39,0-.57,0-.39,0-.57,0-.39,0-.57.05-.39.06-.57,0-.42,0-.57a1.55,1.55,0,0,1,.12-.57,1.09,1.09,0,0,1,.4-.45,2.05,2.05,0,0,1,.56-.17,2.43,2.43,0,0,1,.57-.09,4,4,0,0,1,.59,0c.18,0,.37.07.58.1l.57.08c.2,0,.41,0,.6.1s.37.16.56.23a4.53,4.53,0,0,1,.54.27,4.49,4.49,0,0,1,.53.29,23610773676558.56,23610773676558.56,0,0,1,.9.82,5.5,5.5,0,0,1,.34.5,5.59,5.59,0,0,1,.22.57,3.47,3.47,0,0,1,.19.57,4.08,4.08,0,0,1,0,.61,4,4,0,0,1,0,.6,2.68,2.68,0,0,1-.13.59,3,3,0,0,1-.17.58,2.39,2.39,0,0,1-.36.49,2.24,2.24,0,0,1-.37.49c-.42.34-.49.39-.21.86M41,67.41c0,.28,0,.28,0,.55s0,.28,0,.56,0,.28.06.55,0,.28,0,.56c0,.6.24.6.55.58a4,4,0,0,0,.54-.09,2.42,2.42,0,0,0,.51-.14,2.21,2.21,0,0,0,.5-.21,1.4,1.4,0,0,0,.41-.36,1.31,1.31,0,0,0,.2-.5,1.48,1.48,0,0,0,.08-.53,1.46,1.46,0,0,0-.15-.58,1.3,1.3,0,0,0-.37-.46A2.47,2.47,0,0,0,42.8,67a4.2,4.2,0,0,0-.59-.14,4.14,4.14,0,0,0-.6,0c-.51,0-.6.26-.59.54m3.9,4.71a3.92,3.92,0,0,1,.26.54c.06.16.16.34.23.55s.07.38.11.58a5.09,5.09,0,0,1,.14.59,5.74,5.74,0,0,1,0,.6,2.47,2.47,0,0,1,0,.55,2.13,2.13,0,0,1-.15.54,1.6,1.6,0,0,1-.31.47,1.08,1.08,0,0,1-.46.3.75.75,0,0,1-.55,0,.83.83,0,0,1-.4-.39,1.57,1.57,0,0,1-.21-.52,3,3,0,0,1,0-.55c0-.2,0-.38-.05-.55s0-.38,0-.55a4.47,4.47,0,0,0-.18-.52,3.9,3.9,0,0,0-.18-.52,2.93,2.93,0,0,0-.27-.48c-.21-.28-.27-.35-.88-.3-.15,0-.33,0-.5,0-.5.06-.52.24-.52.57,0,.17.05.36.05.57s0,.37,0,.57,0,.38,0,.56,0,.39,0,.57,0,.3,0,.46a1.37,1.37,0,0,1-.1.6.91.91,0,0,1-.37.48,1,1,0,0,1-.59.12,1.12,1.12,0,0,1-.58-.17,1.13,1.13,0,0,1-.4-.46,1.62,1.62,0,0,1-.12-.61c0-.16,0-.25,0-.46s0-.37,0-.57,0-.37,0-.57,0-.37,0-.57,0-.38,0-.57,0-.38,0-.57,0-.38,0-.57,0-.38,0-.57,0-.38,0-.57,0-.38,0-.57,0-.38,0-.57,0-.38,0-.57v-.57c0-.2,0-.39.06-.57s-.05-.39-.05-.57,0-.39,0-.57,0-.39,0-.57,0-.42,0-.57a1.37,1.37,0,0,1,.12-.57,1.14,1.14,0,0,1,.39-.45,2.05,2.05,0,0,1,.56-.17,2.61,2.61,0,0,1,.58-.09,3.84,3.84,0,0,1,.58,0c.19,0,.38.07.58.1l.58.08c.2,0,.4,0,.6.1s.37.16.56.23a5.44,5.44,0,0,1,.54.27,4.35,4.35,0,0,1,.52.29,4.49,4.49,0,0,1,.46.41,4.27,4.27,0,0,1,.44.41,4,4,0,0,1,.34.5,5.65,5.65,0,0,1,.23.57c.06.18.14.37.19.57a6,6,0,0,1,0,.61,4,4,0,0,1,0,.6,4.68,4.68,0,0,1-.13.59,3,3,0,0,1-.18.58,2.37,2.37,0,0,1-.35.49,2.6,2.6,0,0,1-.37.49c-.43.34-.49.39-.21.86M33.7,71.73c-.08-.26-.1-.25-.18-.51s0-.28-.09-.53-.13-.25-.2-.51-.06-.26-.14-.52-.07-.26-.15-.52-.07-.26-.15-.52-.24-.25-.31,0-.11.25-.19.51-.09.26-.17.51,0,.27-.11.53-.1.25-.18.51,0,.27-.12.53-.09.25-.17.51a.43.43,0,0,0,.45.52c.32,0,.32,0,.63,0a1.84,1.84,0,0,1,.62,0,.39.39,0,0,0,.46-.5m2.07-1.13c.06.19.13.37.18.55s.15.37.2.55.08.39.14.57.13.38.18.56.08.38.13.56.09.39.13.57.08.4.12.57,0,.4.08.58,0,.41,0,.58a2.66,2.66,0,0,1,0,.59,1,1,0,0,1-.29.5.87.87,0,0,1-.54.2,1,1,0,0,1-.56-.15,1.52,1.52,0,0,1-.45-.36,3.45,3.45,0,0,1-.29-.5c-.09-.17-.21-.33-.29-.51s-.12-.38-.18-.55-.14-.53-.72-.53H32.49c-.27,0-.27,0-.56,0s-.28,0-.55,0a.66.66,0,0,0-.69.59,5.35,5.35,0,0,1-.16.55,3.54,3.54,0,0,1-.25.52,2.67,2.67,0,0,1-.3.49,1.34,1.34,0,0,1-.44.35.88.88,0,0,1-.56.09.79.79,0,0,1-.47-.32,1.25,1.25,0,0,1-.25-.53,3.23,3.23,0,0,1-.06-.58,4.37,4.37,0,0,1,.06-.59c0-.18,0-.38.07-.59s.07-.37.12-.57.08-.38.13-.58.12-.37.17-.56.08-.38.14-.58.15-.35.21-.55.12-.36.18-.56.08-.38.14-.57.15-.37.21-.55.13-.38.19-.56.14-.37.2-.55.13-.38.19-.55.14-.38.21-.56.19-.35.26-.53.1-.39.17-.56l.26-.53a5.44,5.44,0,0,1,.32-.5,3.66,3.66,0,0,1,.3-.5,2,2,0,0,1,.44-.4,1.11,1.11,0,0,1,.57-.17,1,1,0,0,1,.52.19,1.65,1.65,0,0,1,.41.36,3.86,3.86,0,0,1,.29.47c.08.15.12.33.2.52s.14.32.21.51a4.67,4.67,0,0,1,.23.5c.06.16.09.35.15.53s.11.34.17.52.14.34.19.52.09.35.15.53.16.33.22.51.1.35.16.53.08.35.13.53m-14.3,3.61a3.08,3.08,0,0,1-.39-.49,2.21,2.21,0,0,1-.25-.59,4.64,4.64,0,0,1,0-.64.82.82,0,0,0-.28-.55,1.12,1.12,0,0,0-.45-.25.92.92,0,0,0-.52,0,.89.89,0,0,0-.43.3,1.36,1.36,0,0,0-.19.49,3.12,3.12,0,0,0-.06.57A3.7,3.7,0,0,0,19,74.21a2.78,2.78,0,0,0,.22.54,3.08,3.08,0,0,0,.24.52,3.16,3.16,0,0,0,.38.44,2.25,2.25,0,0,0,.43.38,3,3,0,0,0,.46.3l.52.22a4.71,4.71,0,0,0,.54.12,6.33,6.33,0,0,0,1.1.19,3.51,3.51,0,0,0,.56,0,3.58,3.58,0,0,0,.54-.14,2.46,2.46,0,0,0,.53-.15,2.83,2.83,0,0,0,.47-.29,3.68,3.68,0,0,0,.44-.34,2.13,2.13,0,0,0,.37-.46,3.17,3.17,0,0,0,.27-.52,4.35,4.35,0,0,0,.22-.54c.06-.18.12-.37.17-.57s.06-.38.1-.57.09-.38.12-.58,0-.39.06-.59a5.73,5.73,0,0,0,.07-.58c0-.2,0-.4,0-.59s.06-.39.07-.59,0-.39,0-.58,0-.4,0-.59,0-.4,0-.59-.05-.81-.05-1,0-.38,0-.55,0-.38,0-.55,0-.38-.05-.54a3.88,3.88,0,0,0-.1-.55,2.59,2.59,0,0,0-.22-.5,1.59,1.59,0,0,0-.3-.46,1.11,1.11,0,0,0-.49-.23,1.41,1.41,0,0,0-.56,0,.8.8,0,0,0-.48.29,1.41,1.41,0,0,0-.23.51,4.18,4.18,0,0,0-.06.56c0,.17-.05.36-.05.56s0,.36,0,.56,0,.36,0,.56,0,.77,0,1,0,.37,0,.57,0,.38,0,.57,0,.37,0,.57,0,.38,0,.57,0,.38,0,.57-.05.38-.06.57,0,.38,0,.57,0,.39,0,.57-.07.4-.1.56a2.3,2.3,0,0,1-.16.55,1.46,1.46,0,0,1-.32.42,2.2,2.2,0,0,1-.43.3,2.16,2.16,0,0,1-.51.16,1.89,1.89,0,0,1-.52-.06,1.58,1.58,0,0,1-.51-.12,1.88,1.88,0,0,1-.38-.37"/></svg>